<svg xmlns="http://www.w3.org/2000/svg" xmlns:xlink="http://www.w3.org/1999/xlink" width="1000" zoomAndPan="magnify" viewBox="0 0 750 225" height="300" preserveAspectRatio="xMidYMid meet" version="1.0"><defs><g/></defs><g fill="#f8f8ff" fill-opacity="1"><g transform="translate(7.110806, 146.625004)"><g><path d="M 32.109375 -2.75 C 31.816406 -3.039062 31.304688 -3.1875 30.578125 -3.1875 C 29.835938 -3.1875 29.285156 -3.039062 28.921875 -2.75 L 29.25 -2.75 C 30.644531 -2.75 31.597656 -2.195312 32.109375 -1.09375 L 32.109375 0 L 16.171875 9.671875 C 15.878906 11.878906 15.179688 13.640625 14.078125 14.953125 C 14.148438 14.515625 14.1875 13.894531 14.1875 13.09375 C 14.1875 10.082031 13.285156 7.585938 11.484375 5.609375 C 9.691406 3.628906 7.441406 2.640625 4.734375 2.640625 C 3.484375 2.640625 2.34375 2.820312 1.3125 3.1875 C 3.300781 2.019531 4.40625 0.222656 4.625 -2.203125 L 4.625 -8.578125 C 4.476562 -11.285156 4.164062 -13.410156 3.6875 -14.953125 C 3.207031 -16.492188 2.34375 -17.59375 1.09375 -18.25 C 1.832031 -18.25 2.601562 -17.9375 3.40625 -17.3125 C 4.21875 -16.695312 4.625 -16.132812 4.625 -15.625 L 4.625 -68.84375 C 4.550781 -70.238281 4.273438 -71.285156 3.796875 -71.984375 C 3.316406 -72.679688 2.566406 -73.359375 1.546875 -74.015625 C 5.648438 -74.304688 8.742188 -75.332031 10.828125 -77.09375 C 12.921875 -78.851562 13.785156 -81.054688 13.421875 -83.703125 C 13.785156 -82.597656 13.96875 -81.5 13.96875 -80.40625 C 13.96875 -79.59375 13.75 -78.453125 13.3125 -76.984375 C 12.644531 -74.492188 12.3125 -72.257812 12.3125 -70.28125 L 12.3125 -66.875 C 12.6875 -68.632812 13.128906 -70.097656 13.640625 -71.265625 L 13.75 -71.265625 C 13.007812 -69.140625 12.640625 -66.941406 12.640625 -64.671875 C 12.640625 -62.035156 12.972656 -59.984375 13.640625 -58.515625 C 13.273438 -60.859375 13.09375 -62.765625 13.09375 -64.234375 C 13.09375 -70.828125 15.546875 -75.257812 20.453125 -77.53125 C 22.578125 -78.488281 24.410156 -79.679688 25.953125 -81.109375 C 27.492188 -82.546875 29.21875 -84.4375 31.125 -86.78125 L 31.34375 -86.671875 C 28.78125 -83.296875 27.5 -80.25 27.5 -77.53125 C 27.5 -75.78125 28.007812 -74.296875 29.03125 -73.078125 C 30.0625 -71.867188 31.566406 -71.082031 33.546875 -70.71875 C 30.828125 -69.84375 29.25 -68.707031 28.8125 -67.3125 C 29.550781 -68.332031 30.613281 -68.84375 32 -68.84375 Z M 19.796875 5.171875 C 21.847656 4.066406 23.128906 2.800781 23.640625 1.375 C 24.160156 -0.0507812 24.421875 -1.515625 24.421875 -3.015625 C 24.421875 -4.523438 24.421875 -5.644531 24.421875 -6.375 L 24.3125 -64.34375 C 24.3125 -66.46875 24.050781 -68.171875 23.53125 -69.453125 C 23.019531 -70.734375 21.957031 -72.109375 20.34375 -73.578125 C 18.582031 -73.140625 17.148438 -71.671875 16.046875 -69.171875 C 14.953125 -66.679688 14.40625 -63.863281 14.40625 -60.71875 C 14.40625 -58.582031 14.679688 -56.597656 15.234375 -54.765625 C 15.785156 -52.929688 16.570312 -51.46875 17.59375 -50.375 L 17.375 -50.265625 C 14.59375 -53.046875 12.90625 -56.234375 12.3125 -59.828125 L 12.3125 -38.609375 C 12.613281 -39.117188 13.109375 -39.570312 13.796875 -39.96875 C 14.492188 -40.375 15.101562 -40.578125 15.625 -40.578125 C 13.789062 -39.628906 12.6875 -37.429688 12.3125 -33.984375 L 12.3125 -3.734375 C 11.65625 -3.878906 10.90625 -3.84375 10.0625 -3.625 C 9.21875 -3.40625 8.503906 -3.039062 7.921875 -2.53125 C 8.503906 -2.75 9.164062 -2.859375 9.90625 -2.859375 C 11.070312 -2.859375 11.875 -2.640625 12.3125 -2.203125 C 12.832031 -0.734375 13.785156 0.691406 15.171875 2.078125 C 16.566406 3.472656 18.109375 4.503906 19.796875 5.171875 Z M 19.796875 5.171875 "/></g></g></g><g fill="#f8f8ff" fill-opacity="1"><g transform="translate(45.054371, 146.625004)"><g><path d="M 34.3125 -7.703125 L 34.3125 0 L 16.171875 9.78125 C 15.878906 11.914062 15.179688 13.640625 14.078125 14.953125 C 14.148438 14.515625 14.1875 13.894531 14.1875 13.09375 C 14.1875 10.082031 13.285156 7.585938 11.484375 5.609375 C 9.691406 3.628906 7.441406 2.640625 4.734375 2.640625 C 3.484375 2.640625 2.34375 2.820312 1.3125 3.1875 C 3.300781 2.019531 4.40625 0.222656 4.625 -2.203125 L 4.625 -13.53125 C 4.476562 -16.238281 4.164062 -18.363281 3.6875 -19.90625 C 3.207031 -21.445312 2.34375 -22.546875 1.09375 -23.203125 C 1.832031 -23.203125 2.601562 -22.890625 3.40625 -22.265625 C 4.21875 -21.648438 4.625 -21.082031 4.625 -20.5625 L 4.625 -65 C 4.25 -68.519531 3.144531 -70.753906 1.3125 -71.703125 C 1.832031 -71.703125 2.398438 -71.519531 3.015625 -71.15625 C 3.640625 -70.789062 4.140625 -70.390625 4.515625 -69.953125 C 4.367188 -70.898438 4.054688 -71.6875 3.578125 -72.3125 C 3.097656 -72.9375 2.421875 -73.503906 1.546875 -74.015625 C 5.648438 -74.304688 8.742188 -75.332031 10.828125 -77.09375 C 12.921875 -78.851562 13.785156 -81.054688 13.421875 -83.703125 C 13.785156 -82.597656 13.96875 -81.457031 13.96875 -80.28125 C 13.96875 -79.550781 13.75 -78.378906 13.3125 -76.765625 C 13.238281 -76.472656 13.128906 -76.085938 12.984375 -75.609375 C 12.835938 -75.140625 12.6875 -74.535156 12.53125 -73.796875 C 15.757812 -73.796875 18.21875 -73.90625 19.90625 -74.125 C 21.738281 -74.34375 23.257812 -75.113281 24.46875 -76.4375 C 25.675781 -77.757812 27.160156 -79.847656 28.921875 -82.703125 L 30.578125 -85.34375 L 30.796875 -85.234375 C 28.960938 -81.929688 28.046875 -78.78125 28.046875 -75.78125 C 28.046875 -72.039062 29.695312 -69.878906 33 -69.296875 C 30.28125 -68.410156 28.703125 -67.269531 28.265625 -65.875 C 28.992188 -66.90625 30.054688 -67.421875 31.453125 -67.421875 L 31.453125 -64.671875 L 27.9375 -62.6875 C 27.125 -62.175781 26.5 -61.570312 26.0625 -60.875 C 25.625 -60.175781 25.40625 -59.460938 25.40625 -58.734375 C 25.40625 -57.554688 25.992188 -56.640625 27.171875 -55.984375 C 24.890625 -56.421875 23.75 -57.882812 23.75 -60.375 L 23.75 -60.71875 C 23.75 -61.007812 23.75 -61.957031 23.75 -63.5625 C 23.75 -65.175781 23.421875 -66.644531 22.765625 -67.96875 C 22.109375 -69.289062 21.117188 -70.460938 19.796875 -71.484375 C 17.234375 -71.484375 15.421875 -71.023438 14.359375 -70.109375 C 13.296875 -69.191406 12.613281 -67.523438 12.3125 -65.109375 L 12.3125 -50.59375 L 17.15625 -50.59375 C 19.945312 -50.59375 21.984375 -49.835938 23.265625 -48.328125 C 24.546875 -46.828125 25.1875 -45.015625 25.1875 -42.890625 C 25.1875 -41.867188 25.054688 -40.898438 24.796875 -39.984375 C 24.546875 -39.066406 24.195312 -38.347656 23.75 -37.828125 C 23.90625 -39.003906 23.984375 -39.773438 23.984375 -40.140625 C 23.984375 -42.640625 23.117188 -44.269531 21.390625 -45.03125 C 19.671875 -45.800781 17.015625 -46.1875 13.421875 -46.1875 L 12.3125 -46.1875 L 12.3125 -37.5 C 12.53125 -38.019531 13.003906 -38.515625 13.734375 -38.984375 C 14.472656 -39.460938 15.140625 -39.703125 15.734375 -39.703125 C 14.628906 -39.117188 13.835938 -38.203125 13.359375 -36.953125 C 12.878906 -35.703125 12.53125 -34.015625 12.3125 -31.890625 L 12.3125 -3.734375 C 11.65625 -3.878906 10.90625 -3.84375 10.0625 -3.625 C 9.21875 -3.40625 8.503906 -3.039062 7.921875 -2.53125 C 8.503906 -2.75 9.164062 -2.859375 9.90625 -2.859375 C 11.070312 -2.859375 11.875 -2.640625 12.3125 -2.203125 C 12.832031 -0.660156 14.171875 0.953125 16.328125 2.640625 C 18.492188 4.328125 20.382812 5.171875 22 5.171875 C 23.90625 4.140625 25.148438 2.960938 25.734375 1.640625 C 26.316406 0.328125 26.609375 -1.28125 26.609375 -3.1875 C 26.460938 -5.832031 26.148438 -7.867188 25.671875 -9.296875 C 25.203125 -10.722656 24.304688 -11.65625 22.984375 -12.09375 C 23.867188 -12.09375 25.003906 -11.726562 26.390625 -11 Z M 34.3125 -7.703125 "/></g></g></g><g fill="#f8f8ff" fill-opacity="1"><g transform="translate(83.767793, 146.625004)"><g><path d="M 34.3125 0 C 36.882812 2.050781 38.171875 4.765625 38.171875 8.140625 C 38.171875 9.535156 37.96875 10.835938 37.5625 12.046875 C 37.15625 13.253906 36.660156 14.222656 36.078125 14.953125 C 36.148438 14.515625 36.1875 13.894531 36.1875 13.09375 C 36.1875 10.082031 35.285156 7.585938 33.484375 5.609375 C 31.691406 3.628906 29.4375 2.640625 26.71875 2.640625 C 25.476562 2.640625 24.34375 2.820312 23.3125 3.1875 C 25.289062 2.019531 26.390625 0.222656 26.609375 -2.203125 L 26.609375 -16.28125 C 26.390625 -18.40625 26.039062 -20.085938 25.5625 -21.328125 C 25.09375 -22.578125 24.304688 -23.5 23.203125 -24.09375 C 23.796875 -24.09375 24.457031 -23.851562 25.1875 -23.375 C 25.914062 -22.894531 26.390625 -22.398438 26.609375 -21.890625 L 26.609375 -41.359375 C 24.859375 -40.984375 23.6875 -40.03125 23.09375 -38.5 C 22.726562 -40.1875 21.957031 -41.191406 20.78125 -41.515625 C 19.613281 -41.847656 17.894531 -42.015625 15.625 -42.015625 L 12.3125 -42.015625 L 12.3125 -1.765625 C 11.65625 -1.984375 11.109375 -2.09375 10.671875 -2.09375 C 9.566406 -2.09375 8.648438 -1.722656 7.921875 -0.984375 C 8.140625 -1.054688 8.503906 -1.09375 9.015625 -1.09375 C 10.335938 -1.09375 11.4375 -0.726562 12.3125 0 C 14.882812 2.34375 16.171875 5.128906 16.171875 8.359375 C 16.171875 9.679688 15.96875 10.925781 15.5625 12.09375 C 15.15625 13.269531 14.660156 14.222656 14.078125 14.953125 C 14.148438 14.515625 14.1875 13.894531 14.1875 13.09375 C 14.1875 10.082031 13.285156 7.585938 11.484375 5.609375 C 9.691406 3.628906 7.441406 2.640625 4.734375 2.640625 C 3.484375 2.640625 2.34375 2.820312 1.3125 3.1875 C 3.300781 2.019531 4.40625 0.222656 4.625 -2.203125 L 4.625 -14.078125 C 4.476562 -16.785156 4.164062 -18.910156 3.6875 -20.453125 C 3.207031 -21.992188 2.34375 -23.09375 1.09375 -23.75 C 1.832031 -23.75 2.601562 -23.4375 3.40625 -22.8125 C 4.21875 -22.195312 4.625 -21.628906 4.625 -21.109375 L 4.625 -68.734375 L 21.109375 -77.765625 L 23.640625 -78.96875 C 26.066406 -80.144531 27.992188 -81.191406 29.421875 -82.109375 C 30.847656 -83.023438 32.148438 -84.175781 33.328125 -85.5625 L 33.65625 -85.5625 C 31.09375 -82.195312 29.8125 -79.15625 29.8125 -76.4375 C 29.8125 -74.675781 30.320312 -73.191406 31.34375 -71.984375 C 32.375 -70.773438 33.878906 -69.988281 35.859375 -69.625 C 33.140625 -68.738281 31.5625 -67.597656 31.125 -66.203125 C 31.851562 -67.234375 32.914062 -67.75 34.3125 -67.75 L 34.3125 -51.46875 C 34.53125 -51.988281 35.003906 -52.484375 35.734375 -52.953125 C 36.472656 -53.429688 37.132812 -53.671875 37.71875 -53.671875 C 36.625 -53.085938 35.835938 -52.171875 35.359375 -50.921875 C 34.878906 -49.671875 34.53125 -47.984375 34.3125 -45.859375 L 34.3125 -1.765625 C 33.65625 -1.984375 33.109375 -2.09375 32.671875 -2.09375 C 31.566406 -2.09375 30.648438 -1.722656 29.921875 -0.984375 C 30.140625 -1.054688 30.503906 -1.09375 31.015625 -1.09375 C 32.335938 -1.09375 33.4375 -0.726562 34.3125 0 Z M 23.53125 -48.71875 C 23.90625 -47.40625 24.929688 -46.160156 26.609375 -44.984375 L 26.609375 -63.234375 C 26.609375 -65.296875 26.296875 -66.96875 25.671875 -68.25 C 25.054688 -69.53125 23.867188 -70.941406 22.109375 -72.484375 C 20.128906 -72.035156 18.625 -70.785156 17.59375 -68.734375 C 16.570312 -66.679688 16.0625 -64.226562 16.0625 -61.375 C 16.0625 -59.03125 16.40625 -56.753906 17.09375 -54.546875 C 17.789062 -52.347656 18.726562 -50.585938 19.90625 -49.265625 L 19.6875 -49.15625 C 17.488281 -50.769531 15.835938 -52.878906 14.734375 -55.484375 C 13.640625 -58.085938 13.09375 -60.707031 13.09375 -63.34375 C 13.09375 -66.0625 13.566406 -68.15625 14.515625 -69.625 L 14.625 -69.625 C 14.113281 -68.082031 13.859375 -66.46875 13.859375 -64.78125 C 13.859375 -61.84375 14.40625 -59.09375 15.5 -56.53125 C 14.769531 -59.238281 14.40625 -61.84375 14.40625 -64.34375 C 14.40625 -67.644531 15.066406 -70.539062 16.390625 -73.03125 C 15.140625 -71.78125 14.164062 -70.421875 13.46875 -68.953125 C 12.769531 -67.492188 12.382812 -65.664062 12.3125 -63.46875 L 12.3125 -46.40625 L 17.8125 -46.40625 C 19.570312 -46.40625 20.835938 -46.5 21.609375 -46.6875 C 22.378906 -46.875 23.019531 -47.550781 23.53125 -48.71875 Z M 23.53125 -48.71875 "/></g></g></g><g fill="#f8f8ff" fill-opacity="1"><g transform="translate(126.330543, 146.625004)"><g><path d="M 50.8125 -67.75 L 44.65625 -65.875 C 43.113281 -65.144531 41.9375 -64.265625 41.125 -63.234375 C 40.320312 -62.210938 39.921875 -61.113281 39.921875 -59.9375 C 39.921875 -59.351562 40.03125 -58.769531 40.25 -58.1875 C 39.519531 -58.988281 39.15625 -59.976562 39.15625 -61.15625 C 39.15625 -62.101562 39.484375 -63.238281 40.140625 -64.5625 L 40.796875 -65.875 C 41.609375 -67.34375 42.015625 -68.882812 42.015625 -70.5 C 42.015625 -72.988281 41.132812 -75.484375 39.375 -77.984375 C 35.414062 -78.128906 32.265625 -77.578125 29.921875 -76.328125 L 29.921875 -43.78125 C 30.210938 -44.289062 30.707031 -44.742188 31.40625 -45.140625 C 32.101562 -45.546875 32.707031 -45.75 33.21875 -45.75 C 31.382812 -44.800781 30.285156 -42.566406 29.921875 -39.046875 L 29.921875 -1.765625 C 29.253906 -1.984375 28.703125 -2.09375 28.265625 -2.09375 C 27.160156 -2.09375 26.242188 -1.722656 25.515625 -0.984375 C 25.734375 -1.054688 26.097656 -1.09375 26.609375 -1.09375 C 27.929688 -1.09375 29.035156 -0.726562 29.921875 0 C 32.484375 2.34375 33.765625 5.128906 33.765625 8.359375 C 33.765625 9.679688 33.5625 10.925781 33.15625 12.09375 C 32.757812 13.269531 32.265625 14.222656 31.671875 14.953125 C 31.742188 14.515625 31.78125 13.894531 31.78125 13.09375 C 31.78125 10.082031 30.878906 7.585938 29.078125 5.609375 C 27.285156 3.628906 25.035156 2.640625 22.328125 2.640625 C 21.078125 2.640625 19.941406 2.820312 18.921875 3.1875 C 20.898438 2.019531 22 0.222656 22.21875 -2.203125 L 22.21875 -8.578125 C 22.070312 -11.285156 21.757812 -13.410156 21.28125 -14.953125 C 20.800781 -16.492188 19.941406 -17.59375 18.703125 -18.25 C 19.429688 -18.25 20.195312 -17.9375 21 -17.3125 C 21.8125 -16.695312 22.21875 -16.132812 22.21875 -15.625 L 22.21875 -76.546875 C 19.875 -77.648438 16.867188 -78.128906 13.203125 -77.984375 C 11.441406 -75.484375 10.5625 -72.988281 10.5625 -70.5 C 10.5625 -68.882812 10.960938 -67.34375 11.765625 -65.875 L 12.421875 -64.5625 C 13.085938 -63.238281 13.421875 -62.101562 13.421875 -61.15625 C 13.421875 -59.976562 13.050781 -58.988281 12.3125 -58.1875 C 12.53125 -58.769531 12.640625 -59.351562 12.640625 -59.9375 C 12.640625 -61.113281 12.238281 -62.210938 11.4375 -63.234375 C 10.632812 -64.265625 9.460938 -65.144531 7.921875 -65.875 L 1.765625 -67.75 L 1.09375 -68.953125 C 1.320312 -69.398438 1.875 -70.265625 2.75 -71.546875 C 3.625 -72.828125 4.410156 -74.21875 5.109375 -75.71875 C 5.804688 -77.226562 6.15625 -78.710938 6.15625 -80.171875 L 26.28125 -80.28125 L 46.40625 -80.171875 C 46.476562 -78.492188 46.878906 -76.882812 47.609375 -75.34375 C 48.347656 -73.800781 49.117188 -72.460938 49.921875 -71.328125 C 50.734375 -70.191406 51.25 -69.398438 51.46875 -68.953125 Z M 50.8125 -67.75 "/></g></g></g><g fill="#f8f8ff" fill-opacity="1"><g transform="translate(182.200917, 146.625004)"><g><path d="M 35.421875 0 C 37.984375 2.34375 39.265625 5.128906 39.265625 8.359375 C 39.265625 9.679688 39.0625 10.925781 38.65625 12.09375 C 38.25 13.269531 37.753906 14.222656 37.171875 14.953125 C 37.242188 14.515625 37.28125 13.894531 37.28125 13.09375 C 37.28125 10.082031 36.378906 7.585938 34.578125 5.609375 C 32.785156 3.628906 30.535156 2.640625 27.828125 2.640625 C 26.578125 2.640625 25.441406 2.820312 24.421875 3.1875 C 26.398438 2.019531 27.5 0.222656 27.71875 -2.203125 L 27.71875 -8.578125 C 27.570312 -11.285156 27.257812 -13.410156 26.78125 -14.953125 C 26.300781 -16.492188 25.441406 -17.59375 24.203125 -18.25 C 24.929688 -18.25 25.695312 -17.9375 26.5 -17.3125 C 27.3125 -16.695312 27.71875 -16.132812 27.71875 -15.625 L 27.71875 -41.46875 C 26.832031 -41.46875 25.945312 -41.207031 25.0625 -40.6875 C 24.1875 -40.175781 23.53125 -39.445312 23.09375 -38.5 C 22.726562 -40.1875 21.957031 -41.191406 20.78125 -41.515625 C 19.613281 -41.847656 17.894531 -42.015625 15.625 -42.015625 L 12.3125 -42.015625 L 12.3125 -1.765625 C 11.65625 -1.984375 11.109375 -2.09375 10.671875 -2.09375 C 9.566406 -2.09375 8.648438 -1.722656 7.921875 -0.984375 C 8.140625 -1.054688 8.503906 -1.09375 9.015625 -1.09375 C 10.335938 -1.09375 11.4375 -0.726562 12.3125 0 C 14.882812 2.34375 16.171875 5.128906 16.171875 8.359375 C 16.171875 9.679688 15.96875 10.925781 15.5625 12.09375 C 15.15625 13.269531 14.660156 14.222656 14.078125 14.953125 C 14.148438 14.515625 14.1875 13.894531 14.1875 13.09375 C 14.1875 10.082031 13.285156 7.585938 11.484375 5.609375 C 9.691406 3.628906 7.441406 2.640625 4.734375 2.640625 C 3.484375 2.640625 2.34375 2.820312 1.3125 3.1875 C 3.300781 2.019531 4.40625 0.222656 4.625 -2.203125 L 4.625 -8.578125 C 4.476562 -11.285156 4.164062 -13.410156 3.6875 -14.953125 C 3.207031 -16.492188 2.34375 -17.59375 1.09375 -18.25 C 1.832031 -18.25 2.601562 -17.9375 3.40625 -17.3125 C 4.21875 -16.695312 4.625 -16.132812 4.625 -15.625 L 4.625 -68.84375 C 4.550781 -70.238281 4.273438 -71.285156 3.796875 -71.984375 C 3.316406 -72.679688 2.566406 -73.359375 1.546875 -74.015625 C 5.648438 -74.304688 8.742188 -75.332031 10.828125 -77.09375 C 12.921875 -78.851562 13.785156 -81.054688 13.421875 -83.703125 C 13.785156 -82.597656 13.96875 -81.5 13.96875 -80.40625 C 13.96875 -79.59375 13.75 -78.453125 13.3125 -76.984375 C 12.644531 -74.492188 12.3125 -72.257812 12.3125 -70.28125 L 12.3125 -63.234375 C 12.3125 -63.753906 12.710938 -64.320312 13.515625 -64.9375 C 14.328125 -65.5625 15.101562 -65.875 15.84375 -65.875 C 14.519531 -65.21875 13.632812 -63.914062 13.1875 -61.96875 C 12.75 -60.03125 12.457031 -56.640625 12.3125 -51.796875 L 12.3125 -46.40625 L 17.8125 -46.40625 C 19.570312 -46.40625 20.835938 -46.5 21.609375 -46.6875 C 22.378906 -46.875 23.019531 -47.550781 23.53125 -48.71875 C 23.75 -47.769531 24.1875 -46.984375 24.84375 -46.359375 C 25.507812 -45.734375 26.46875 -45.019531 27.71875 -44.21875 L 27.71875 -66.65625 C 27.71875 -69.21875 27.019531 -70.992188 25.625 -71.984375 C 24.226562 -72.972656 21.515625 -73.613281 17.484375 -73.90625 L 17.484375 -74.125 C 22.179688 -74.414062 26.378906 -75.382812 30.078125 -77.03125 C 33.785156 -78.6875 35.640625 -80.578125 35.640625 -82.703125 C 35.640625 -83.585938 35.304688 -84.46875 34.640625 -85.34375 L 34.859375 -85.234375 C 35.816406 -83.992188 36.296875 -82.566406 36.296875 -80.953125 C 36.296875 -79.628906 35.925781 -77.867188 35.1875 -75.671875 C 35.113281 -75.234375 34.96875 -74.628906 34.75 -73.859375 C 34.53125 -73.085938 34.421875 -72.445312 34.421875 -71.9375 C 34.421875 -70.46875 35.300781 -69.585938 37.0625 -69.296875 C 34.351562 -68.410156 32.773438 -67.269531 32.328125 -65.875 C 33.066406 -66.90625 34.097656 -67.421875 35.421875 -67.421875 L 35.421875 -52.25 C 35.421875 -52.757812 35.820312 -53.320312 36.625 -53.9375 C 37.425781 -54.5625 38.195312 -54.875 38.9375 -54.875 C 37.613281 -54.21875 36.734375 -52.914062 36.296875 -50.96875 C 35.859375 -49.03125 35.566406 -45.640625 35.421875 -40.796875 L 35.421875 -1.765625 C 34.753906 -1.984375 34.203125 -2.09375 33.765625 -2.09375 C 32.660156 -2.09375 31.742188 -1.722656 31.015625 -0.984375 C 31.234375 -1.054688 31.597656 -1.09375 32.109375 -1.09375 C 33.429688 -1.09375 34.535156 -0.726562 35.421875 0 Z M 35.421875 0 "/></g></g></g><g fill="#f8f8ff" fill-opacity="1"><g transform="translate(225.863467, 146.625004)"><g><path d="M 56.3125 -47.84375 C 56.3125 -48.351562 56.710938 -48.921875 57.515625 -49.546875 C 58.328125 -50.171875 59.097656 -50.484375 59.828125 -50.484375 C 58.585938 -49.828125 57.726562 -48.726562 57.25 -47.1875 C 56.769531 -45.644531 56.457031 -43.515625 56.3125 -40.796875 L 56.3125 -6.59375 L 38.171875 9.34375 C 37.941406 11.769531 37.242188 13.640625 36.078125 14.953125 C 36.148438 14.515625 36.1875 13.894531 36.1875 13.09375 C 36.1875 10.007812 35.25 7.40625 33.375 5.28125 C 31.507812 3.15625 29.253906 2.09375 26.609375 2.09375 C 25.585938 2.09375 24.671875 2.238281 23.859375 2.53125 L 16.171875 9.34375 C 15.953125 11.769531 15.253906 13.640625 14.078125 14.953125 C 14.148438 14.515625 14.1875 13.894531 14.1875 13.09375 C 14.1875 10.082031 13.285156 7.585938 11.484375 5.609375 C 9.691406 3.628906 7.441406 2.640625 4.734375 2.640625 C 3.484375 2.640625 2.34375 2.820312 1.3125 3.1875 C 3.300781 2.019531 4.40625 0.222656 4.625 -2.203125 L 4.625 -8.578125 C 4.476562 -11.285156 4.164062 -13.410156 3.6875 -14.953125 C 3.207031 -16.492188 2.34375 -17.59375 1.09375 -18.25 C 1.832031 -18.25 2.601562 -17.9375 3.40625 -17.3125 C 4.21875 -16.695312 4.625 -16.132812 4.625 -15.625 L 4.625 -68.84375 C 4.550781 -70.238281 4.273438 -71.285156 3.796875 -71.984375 C 3.316406 -72.679688 2.566406 -73.359375 1.546875 -74.015625 C 5.648438 -74.304688 8.742188 -75.332031 10.828125 -77.09375 C 12.921875 -78.851562 13.785156 -81.054688 13.421875 -83.703125 C 13.785156 -82.597656 13.96875 -81.5 13.96875 -80.40625 C 13.96875 -79.59375 13.75 -78.453125 13.3125 -76.984375 C 12.644531 -74.492188 12.3125 -72.257812 12.3125 -70.28125 L 12.3125 -51.140625 C 12.3125 -51.648438 12.710938 -52.21875 13.515625 -52.84375 C 14.328125 -53.46875 15.101562 -53.78125 15.84375 -53.78125 C 14.59375 -53.125 13.726562 -52.023438 13.25 -50.484375 C 12.769531 -48.941406 12.457031 -46.816406 12.3125 -44.109375 L 12.3125 -3.734375 C 11.65625 -3.878906 10.90625 -3.84375 10.0625 -3.625 C 9.21875 -3.40625 8.503906 -3.039062 7.921875 -2.53125 C 8.503906 -2.75 9.164062 -2.859375 9.90625 -2.859375 C 11.070312 -2.859375 11.875 -2.640625 12.3125 -2.203125 C 12.832031 -0.660156 13.820312 0.65625 15.28125 1.75 C 16.75 2.851562 18.289062 3.40625 19.90625 3.40625 C 22.769531 0.914062 24.582031 -1.351562 25.34375 -3.40625 C 26.113281 -5.457031 26.515625 -7.289062 26.546875 -8.90625 C 26.585938 -10.519531 26.609375 -11.582031 26.609375 -12.09375 L 26.609375 -21.890625 C 26.242188 -25.335938 25.144531 -27.535156 23.3125 -28.484375 C 23.90625 -28.484375 24.53125 -28.28125 25.1875 -27.875 C 25.84375 -27.476562 26.316406 -27.019531 26.609375 -26.5 L 26.609375 -68.84375 C 26.535156 -70.238281 26.257812 -71.285156 25.78125 -71.984375 C 25.3125 -72.679688 24.5625 -73.359375 23.53125 -74.015625 C 27.644531 -74.304688 30.742188 -75.332031 32.828125 -77.09375 C 34.921875 -78.851562 35.785156 -81.054688 35.421875 -83.703125 C 35.785156 -82.597656 35.96875 -81.5 35.96875 -80.40625 C 35.96875 -79.59375 35.75 -78.453125 35.3125 -76.984375 C 34.644531 -74.492188 34.3125 -72.257812 34.3125 -70.28125 L 34.3125 -51.140625 C 34.3125 -51.648438 34.710938 -52.21875 35.515625 -52.84375 C 36.328125 -53.46875 37.097656 -53.78125 37.828125 -53.78125 C 36.585938 -53.125 35.726562 -52.023438 35.25 -50.484375 C 34.769531 -48.941406 34.457031 -46.816406 34.3125 -44.109375 L 34.3125 -3.734375 C 33.65625 -3.878906 32.90625 -3.84375 32.0625 -3.625 C 31.21875 -3.40625 30.503906 -3.039062 29.921875 -2.53125 C 30.503906 -2.75 31.160156 -2.859375 31.890625 -2.859375 C 33.066406 -2.859375 33.875 -2.640625 34.3125 -2.203125 C 34.820312 -0.660156 35.8125 0.65625 37.28125 1.75 C 38.75 2.851562 40.289062 3.40625 41.90625 3.40625 C 44.757812 0.914062 46.570312 -1.351562 47.34375 -3.40625 C 48.113281 -5.457031 48.515625 -7.289062 48.546875 -8.90625 C 48.585938 -10.519531 48.609375 -11.582031 48.609375 -12.09375 L 48.609375 -21.890625 C 48.242188 -25.335938 47.144531 -27.535156 45.3125 -28.484375 C 45.894531 -28.484375 46.515625 -28.28125 47.171875 -27.875 C 47.835938 -27.476562 48.316406 -27.019531 48.609375 -26.5 L 48.609375 -68.84375 C 48.535156 -70.238281 48.257812 -71.285156 47.78125 -71.984375 C 47.3125 -72.679688 46.5625 -73.359375 45.53125 -74.015625 C 49.632812 -74.304688 52.734375 -75.332031 54.828125 -77.09375 C 56.921875 -78.851562 57.78125 -81.054688 57.40625 -83.703125 C 57.78125 -82.597656 57.96875 -81.5 57.96875 -80.40625 C 57.96875 -79.59375 57.742188 -78.453125 57.296875 -76.984375 C 56.640625 -74.492188 56.3125 -72.257812 56.3125 -70.28125 Z M 56.3125 -47.84375 "/></g></g></g><g fill="#f8f8ff" fill-opacity="1"><g transform="translate(290.092354, 146.625004)"><g><path d="M 12.3125 0 C 14.882812 2.34375 16.171875 5.128906 16.171875 8.359375 C 16.171875 9.679688 15.96875 10.925781 15.5625 12.09375 C 15.15625 13.269531 14.660156 14.222656 14.078125 14.953125 C 14.148438 14.515625 14.1875 13.894531 14.1875 13.09375 C 14.1875 10.082031 13.285156 7.585938 11.484375 5.609375 C 9.691406 3.628906 7.441406 2.640625 4.734375 2.640625 C 3.484375 2.640625 2.34375 2.820312 1.3125 3.1875 C 3.300781 2.019531 4.40625 0.222656 4.625 -2.203125 L 4.625 -13.53125 C 4.476562 -16.238281 4.164062 -18.363281 3.6875 -19.90625 C 3.207031 -21.445312 2.34375 -22.546875 1.09375 -23.203125 C 1.832031 -23.203125 2.601562 -22.890625 3.40625 -22.265625 C 4.21875 -21.648438 4.625 -21.082031 4.625 -20.5625 L 4.625 -68.84375 C 4.550781 -70.238281 4.273438 -71.285156 3.796875 -71.984375 C 3.316406 -72.679688 2.566406 -73.359375 1.546875 -74.015625 C 5.648438 -74.304688 8.742188 -75.332031 10.828125 -77.09375 C 12.921875 -78.851562 13.785156 -81.054688 13.421875 -83.703125 C 13.785156 -82.597656 13.96875 -81.5 13.96875 -80.40625 C 13.96875 -79.59375 13.75 -78.453125 13.3125 -76.984375 C 12.644531 -74.492188 12.3125 -72.257812 12.3125 -70.28125 L 12.3125 -37.71875 C 12.613281 -38.238281 13.109375 -38.695312 13.796875 -39.09375 C 14.492188 -39.5 15.101562 -39.703125 15.625 -39.703125 C 13.789062 -38.753906 12.6875 -36.554688 12.3125 -33.109375 L 12.3125 -1.765625 C 11.65625 -1.984375 11.109375 -2.09375 10.671875 -2.09375 C 9.566406 -2.09375 8.648438 -1.722656 7.921875 -0.984375 C 8.140625 -1.054688 8.503906 -1.09375 9.015625 -1.09375 C 10.335938 -1.09375 11.4375 -0.726562 12.3125 0 Z M 12.3125 0 "/></g></g></g><g fill="#f8f8ff" fill-opacity="1"><g transform="translate(310.659011, 146.625004)"><g><path d="M 23.203125 -18.25 C 24.015625 -21.113281 24.421875 -23.976562 24.421875 -26.84375 C 24.421875 -31.09375 23.664062 -34.789062 22.15625 -37.9375 C 20.65625 -41.09375 18.585938 -44.46875 15.953125 -48.0625 C 14.847656 -49.457031 14 -50.628906 13.40625 -51.578125 C 12.820312 -52.535156 12.457031 -53.414062 12.3125 -54.21875 L 12.3125 -1.765625 C 11.65625 -1.984375 11.109375 -2.09375 10.671875 -2.09375 C 9.566406 -2.09375 8.648438 -1.722656 7.921875 -0.984375 C 8.140625 -1.054688 8.503906 -1.09375 9.015625 -1.09375 C 10.335938 -1.09375 11.4375 -0.726562 12.3125 0 C 14.882812 2.34375 16.171875 5.128906 16.171875 8.359375 C 16.171875 9.679688 15.96875 10.925781 15.5625 12.09375 C 15.15625 13.269531 14.660156 14.222656 14.078125 14.953125 C 14.148438 14.515625 14.1875 13.894531 14.1875 13.09375 C 14.1875 10.082031 13.285156 7.585938 11.484375 5.609375 C 9.691406 3.628906 7.441406 2.640625 4.734375 2.640625 C 3.484375 2.640625 2.34375 2.820312 1.3125 3.1875 C 3.300781 2.019531 4.40625 0.222656 4.625 -2.203125 L 4.625 -9.671875 C 4.476562 -12.390625 4.164062 -14.519531 3.6875 -16.0625 C 3.207031 -17.601562 2.34375 -18.703125 1.09375 -19.359375 C 1.832031 -19.359375 2.601562 -19.046875 3.40625 -18.421875 C 4.21875 -17.796875 4.625 -17.226562 4.625 -16.71875 L 4.625 -68.84375 C 4.550781 -70.238281 4.273438 -71.285156 3.796875 -71.984375 C 3.316406 -72.679688 2.566406 -73.359375 1.546875 -74.015625 C 5.648438 -74.304688 8.742188 -75.332031 10.828125 -77.09375 C 12.921875 -78.851562 13.785156 -81.054688 13.421875 -83.703125 C 13.785156 -82.597656 13.96875 -81.5 13.96875 -80.40625 C 13.96875 -79.59375 13.75 -78.453125 13.3125 -76.984375 C 12.644531 -74.492188 12.3125 -72.257812 12.3125 -70.28125 C 12.3125 -67.050781 12.878906 -64.148438 14.015625 -61.578125 C 15.160156 -59.015625 16.832031 -56.050781 19.03125 -52.6875 C 21.375 -49.019531 23.148438 -45.753906 24.359375 -42.890625 C 25.566406 -40.035156 26.171875 -36.664062 26.171875 -32.78125 C 26.171875 -28.445312 25.253906 -23.679688 23.421875 -18.484375 Z M 34.3125 0 C 36.882812 2.34375 38.171875 5.128906 38.171875 8.359375 C 38.171875 9.679688 37.96875 10.925781 37.5625 12.09375 C 37.15625 13.269531 36.660156 14.222656 36.078125 14.953125 C 36.148438 14.515625 36.1875 13.894531 36.1875 13.09375 C 36.1875 10.082031 35.285156 7.585938 33.484375 5.609375 C 31.691406 3.628906 29.4375 2.640625 26.71875 2.640625 C 25.476562 2.640625 24.34375 2.820312 23.3125 3.1875 C 25.289062 2.019531 26.390625 0.222656 26.609375 -2.203125 L 26.609375 -68.84375 C 26.535156 -70.238281 26.257812 -71.285156 25.78125 -71.984375 C 25.3125 -72.679688 24.5625 -73.359375 23.53125 -74.015625 C 27.644531 -74.304688 30.742188 -75.332031 32.828125 -77.09375 C 34.921875 -78.851562 35.785156 -81.054688 35.421875 -83.703125 C 35.785156 -82.597656 35.96875 -81.5 35.96875 -80.40625 C 35.96875 -79.59375 35.75 -78.453125 35.3125 -76.984375 C 34.644531 -74.492188 34.3125 -72.257812 34.3125 -70.28125 L 34.3125 -51.140625 C 34.3125 -51.648438 34.710938 -52.21875 35.515625 -52.84375 C 36.328125 -53.46875 37.097656 -53.78125 37.828125 -53.78125 C 36.585938 -53.125 35.726562 -52.023438 35.25 -50.484375 C 34.769531 -48.941406 34.457031 -46.816406 34.3125 -44.109375 L 34.3125 -1.765625 C 33.65625 -1.984375 33.109375 -2.09375 32.671875 -2.09375 C 31.566406 -2.09375 30.648438 -1.722656 29.921875 -0.984375 C 30.140625 -1.054688 30.503906 -1.09375 31.015625 -1.09375 C 32.335938 -1.09375 33.4375 -0.726562 34.3125 0 Z M 34.3125 0 "/></g></g></g><g fill="#f8f8ff" fill-opacity="1"><g transform="translate(353.221761, 146.625004)"><g><path d="M 35.53125 -73.90625 L 31.5625 -69.734375 C 30.164062 -67.898438 29.46875 -66.066406 29.46875 -64.234375 C 29.46875 -62.617188 30.054688 -61.296875 31.234375 -60.265625 C 30.054688 -60.859375 29.191406 -61.664062 28.640625 -62.6875 C 28.097656 -63.71875 27.828125 -64.742188 27.828125 -65.765625 L 27.828125 -67.203125 C 27.828125 -68.960938 27.128906 -70.8125 25.734375 -72.75 C 24.335938 -74.695312 22.578125 -76.109375 20.453125 -76.984375 C 17.671875 -75.742188 15.617188 -74.332031 14.296875 -72.75 C 12.972656 -71.175781 12.3125 -68.703125 12.3125 -65.328125 L 12.3125 -37.71875 C 12.613281 -38.238281 13.109375 -38.695312 13.796875 -39.09375 C 14.492188 -39.5 15.101562 -39.703125 15.625 -39.703125 C 13.789062 -38.753906 12.6875 -36.554688 12.3125 -33.109375 L 12.3125 -3.734375 C 11.65625 -3.878906 10.90625 -3.84375 10.0625 -3.625 C 9.21875 -3.40625 8.503906 -3.039062 7.921875 -2.53125 C 8.503906 -2.75 9.164062 -2.859375 9.90625 -2.859375 C 11.070312 -2.859375 11.875 -2.640625 12.3125 -2.203125 C 12.832031 -0.660156 14.171875 0.953125 16.328125 2.640625 C 18.492188 4.328125 20.382812 5.171875 22 5.171875 C 23.6875 4.285156 24.835938 3.179688 25.453125 1.859375 C 26.078125 0.546875 26.425781 -0.988281 26.5 -2.75 L 26.5 -30.796875 C 26.5 -33.648438 26.097656 -35.847656 25.296875 -37.390625 C 24.492188 -38.929688 22.769531 -40.289062 20.125 -41.46875 L 20.125 -42.453125 L 26.5 -39.59375 L 34.3125 -36.296875 L 34.3125 0 L 16.171875 9.78125 C 15.878906 11.914062 15.179688 13.640625 14.078125 14.953125 C 14.148438 14.515625 14.1875 13.894531 14.1875 13.09375 C 14.1875 10.082031 13.285156 7.585938 11.484375 5.609375 C 9.691406 3.628906 7.441406 2.640625 4.734375 2.640625 C 3.484375 2.640625 2.34375 2.820312 1.3125 3.1875 C 3.300781 2.019531 4.40625 0.222656 4.625 -2.203125 L 4.625 -13.53125 C 4.476562 -16.238281 4.164062 -18.363281 3.6875 -19.90625 C 3.207031 -21.445312 2.34375 -22.546875 1.09375 -23.203125 C 1.832031 -23.203125 2.601562 -22.890625 3.40625 -22.265625 C 4.21875 -21.648438 4.625 -21.082031 4.625 -20.5625 L 4.625 -72.046875 L 22.328125 -80.734375 C 23.273438 -79.335938 24.554688 -78.195312 26.171875 -77.3125 C 24.265625 -79.375 23.3125 -81.722656 23.3125 -84.359375 C 23.3125 -85.753906 23.570312 -86.960938 24.09375 -87.984375 C 23.863281 -87.472656 23.75 -86.851562 23.75 -86.125 C 23.75 -84.363281 24.445312 -82.566406 25.84375 -80.734375 C 27.238281 -78.898438 28.890625 -77.453125 30.796875 -76.390625 C 32.703125 -75.328125 34.28125 -74.941406 35.53125 -75.234375 Z M 35.53125 -73.90625 "/></g></g></g><g fill="#f8f8ff" fill-opacity="1"><g transform="translate(393.144955, 146.625004)"><g><path d="M 37.609375 -27.390625 C 36.367188 -26.722656 35.507812 -25.617188 35.03125 -24.078125 C 34.550781 -22.546875 34.238281 -20.421875 34.09375 -17.703125 L 34.09375 0 C 34.164062 1.394531 34.3125 2.4375 34.53125 3.125 C 34.75 3.820312 35.375 4.648438 36.40625 5.609375 C 34.351562 4.578125 32.484375 4.0625 30.796875 4.0625 C 28.597656 4.0625 26.816406 4.773438 25.453125 6.203125 C 24.097656 7.640625 23.421875 9.53125 23.421875 11.875 C 23.421875 13.488281 23.753906 15.210938 24.421875 17.046875 C 23.390625 15.867188 22.5625 14.328125 21.9375 12.421875 C 21.3125 10.515625 21.113281 8.644531 21.34375 6.8125 L 14.515625 10.5625 C 11.066406 7.988281 8.609375 6.097656 7.140625 4.890625 C 5.679688 3.679688 4.769531 2.929688 4.40625 2.640625 L 4.40625 -20.234375 L 12.09375 -23.53125 C 12.164062 -23.53125 12.566406 -23.675781 13.296875 -23.96875 C 14.035156 -24.269531 14.8125 -24.492188 15.625 -24.640625 C 14.226562 -24.203125 13.304688 -23.191406 12.859375 -21.609375 C 12.421875 -20.035156 12.164062 -17.742188 12.09375 -14.734375 L 12.09375 -3.953125 C 12.09375 -2.710938 13.046875 -1.269531 14.953125 0.375 C 16.859375 2.03125 19.132812 3.628906 21.78125 5.171875 C 23.539062 4.210938 24.726562 3.144531 25.34375 1.96875 C 25.96875 0.800781 26.316406 -0.585938 26.390625 -2.203125 L 26.390625 -32.109375 L 16.171875 -37.171875 C 16.242188 -35.773438 16.054688 -34.4375 15.609375 -33.15625 C 15.171875 -31.875 14.660156 -30.867188 14.078125 -30.140625 C 14.148438 -30.578125 14.1875 -31.195312 14.1875 -32 C 14.1875 -35.007812 13.304688 -37.503906 11.546875 -39.484375 L 5.5 -42.453125 C 4.25 -42.523438 2.851562 -42.34375 1.3125 -41.90625 C 2.925781 -42.851562 3.957031 -44.242188 4.40625 -46.078125 L 4.40625 -53.78125 C 4.03125 -57.226562 2.925781 -59.425781 1.09375 -60.375 C 1.6875 -60.375 2.3125 -60.171875 2.96875 -59.765625 C 3.625 -59.367188 4.101562 -58.914062 4.40625 -58.40625 L 4.40625 -70.9375 L 22.984375 -80.40625 C 23.492188 -79.519531 24.375 -78.523438 25.625 -77.421875 C 24.007812 -79.484375 23.203125 -81.648438 23.203125 -83.921875 C 23.203125 -85.015625 23.421875 -86.003906 23.859375 -86.890625 C 23.640625 -86.378906 23.53125 -85.753906 23.53125 -85.015625 C 23.53125 -83.253906 24.226562 -81.457031 25.625 -79.625 C 27.019531 -77.789062 28.671875 -76.34375 30.578125 -75.28125 C 32.484375 -74.21875 34.0625 -73.832031 35.3125 -74.125 L 35.3125 -72.8125 L 31.34375 -68.625 C 29.945312 -66.789062 29.25 -64.957031 29.25 -63.125 C 29.25 -61.519531 29.835938 -60.203125 31.015625 -59.171875 C 29.835938 -59.753906 28.972656 -60.554688 28.421875 -61.578125 C 27.878906 -62.609375 27.609375 -63.640625 27.609375 -64.671875 L 27.609375 -66.09375 C 27.609375 -67.851562 26.910156 -69.703125 25.515625 -71.640625 C 24.117188 -73.585938 22.359375 -75.003906 20.234375 -75.890625 C 18.328125 -75.003906 16.84375 -74.175781 15.78125 -73.40625 C 14.71875 -72.644531 13.835938 -71.546875 13.140625 -70.109375 C 12.441406 -68.679688 12.09375 -66.796875 12.09375 -64.453125 L 12.09375 -46.515625 L 34.09375 -35.421875 L 34.09375 -24.75 C 34.09375 -25.257812 34.492188 -25.828125 35.296875 -26.453125 C 36.109375 -27.078125 36.878906 -27.390625 37.609375 -27.390625 Z M 37.609375 -27.390625 "/></g></g></g><g fill="#f8f8ff" fill-opacity="1"><g transform="translate(435.157816, 146.625004)"><g/></g></g><g fill="#f8f8ff" fill-opacity="1"><g transform="translate(465.952675, 146.625004)"><g><path d="M 34.3125 0 C 36.882812 2.050781 38.171875 4.765625 38.171875 8.140625 C 38.171875 9.535156 37.96875 10.835938 37.5625 12.046875 C 37.15625 13.253906 36.660156 14.222656 36.078125 14.953125 C 36.148438 14.515625 36.1875 13.894531 36.1875 13.09375 C 36.1875 10.082031 35.285156 7.585938 33.484375 5.609375 C 31.691406 3.628906 29.4375 2.640625 26.71875 2.640625 C 25.476562 2.640625 24.34375 2.820312 23.3125 3.1875 C 25.289062 2.019531 26.390625 0.222656 26.609375 -2.203125 L 26.609375 -16.28125 C 26.390625 -18.40625 26.039062 -20.085938 25.5625 -21.328125 C 25.09375 -22.578125 24.304688 -23.5 23.203125 -24.09375 C 23.796875 -24.09375 24.457031 -23.851562 25.1875 -23.375 C 25.914062 -22.894531 26.390625 -22.398438 26.609375 -21.890625 L 26.609375 -41.359375 C 24.859375 -40.984375 23.6875 -40.03125 23.09375 -38.5 C 22.726562 -40.1875 21.957031 -41.191406 20.78125 -41.515625 C 19.613281 -41.847656 17.894531 -42.015625 15.625 -42.015625 L 12.3125 -42.015625 L 12.3125 -1.765625 C 11.65625 -1.984375 11.109375 -2.09375 10.671875 -2.09375 C 9.566406 -2.09375 8.648438 -1.722656 7.921875 -0.984375 C 8.140625 -1.054688 8.503906 -1.09375 9.015625 -1.09375 C 10.335938 -1.09375 11.4375 -0.726562 12.3125 0 C 14.882812 2.34375 16.171875 5.128906 16.171875 8.359375 C 16.171875 9.679688 15.96875 10.925781 15.5625 12.09375 C 15.15625 13.269531 14.660156 14.222656 14.078125 14.953125 C 14.148438 14.515625 14.1875 13.894531 14.1875 13.09375 C 14.1875 10.082031 13.285156 7.585938 11.484375 5.609375 C 9.691406 3.628906 7.441406 2.640625 4.734375 2.640625 C 3.484375 2.640625 2.34375 2.820312 1.3125 3.1875 C 3.300781 2.019531 4.40625 0.222656 4.625 -2.203125 L 4.625 -14.078125 C 4.476562 -16.785156 4.164062 -18.910156 3.6875 -20.453125 C 3.207031 -21.992188 2.34375 -23.09375 1.09375 -23.75 C 1.832031 -23.75 2.601562 -23.4375 3.40625 -22.8125 C 4.21875 -22.195312 4.625 -21.628906 4.625 -21.109375 L 4.625 -68.734375 L 21.109375 -77.765625 L 23.640625 -78.96875 C 26.066406 -80.144531 27.992188 -81.191406 29.421875 -82.109375 C 30.847656 -83.023438 32.148438 -84.175781 33.328125 -85.5625 L 33.65625 -85.5625 C 31.09375 -82.195312 29.8125 -79.15625 29.8125 -76.4375 C 29.8125 -74.675781 30.320312 -73.191406 31.34375 -71.984375 C 32.375 -70.773438 33.878906 -69.988281 35.859375 -69.625 C 33.140625 -68.738281 31.5625 -67.597656 31.125 -66.203125 C 31.851562 -67.234375 32.914062 -67.75 34.3125 -67.75 L 34.3125 -51.46875 C 34.53125 -51.988281 35.003906 -52.484375 35.734375 -52.953125 C 36.472656 -53.429688 37.132812 -53.671875 37.71875 -53.671875 C 36.625 -53.085938 35.835938 -52.171875 35.359375 -50.921875 C 34.878906 -49.671875 34.53125 -47.984375 34.3125 -45.859375 L 34.3125 -1.765625 C 33.65625 -1.984375 33.109375 -2.09375 32.671875 -2.09375 C 31.566406 -2.09375 30.648438 -1.722656 29.921875 -0.984375 C 30.140625 -1.054688 30.503906 -1.09375 31.015625 -1.09375 C 32.335938 -1.09375 33.4375 -0.726562 34.3125 0 Z M 23.53125 -48.71875 C 23.90625 -47.40625 24.929688 -46.160156 26.609375 -44.984375 L 26.609375 -63.234375 C 26.609375 -65.296875 26.296875 -66.96875 25.671875 -68.25 C 25.054688 -69.53125 23.867188 -70.941406 22.109375 -72.484375 C 20.128906 -72.035156 18.625 -70.785156 17.59375 -68.734375 C 16.570312 -66.679688 16.0625 -64.226562 16.0625 -61.375 C 16.0625 -59.03125 16.40625 -56.753906 17.09375 -54.546875 C 17.789062 -52.347656 18.726562 -50.585938 19.90625 -49.265625 L 19.6875 -49.15625 C 17.488281 -50.769531 15.835938 -52.878906 14.734375 -55.484375 C 13.640625 -58.085938 13.09375 -60.707031 13.09375 -63.34375 C 13.09375 -66.0625 13.566406 -68.15625 14.515625 -69.625 L 14.625 -69.625 C 14.113281 -68.082031 13.859375 -66.46875 13.859375 -64.78125 C 13.859375 -61.84375 14.40625 -59.09375 15.5 -56.53125 C 14.769531 -59.238281 14.40625 -61.84375 14.40625 -64.34375 C 14.40625 -67.644531 15.066406 -70.539062 16.390625 -73.03125 C 15.140625 -71.78125 14.164062 -70.421875 13.46875 -68.953125 C 12.769531 -67.492188 12.382812 -65.664062 12.3125 -63.46875 L 12.3125 -46.40625 L 17.8125 -46.40625 C 19.570312 -46.40625 20.835938 -46.5 21.609375 -46.6875 C 22.378906 -46.875 23.019531 -47.550781 23.53125 -48.71875 Z M 23.53125 -48.71875 "/></g></g></g><g fill="#f8f8ff" fill-opacity="1"><g transform="translate(508.515402, 146.625004)"><g><path d="M 28.59375 -67.3125 C 29.332031 -68.332031 30.394531 -68.84375 31.78125 -68.84375 L 31.78125 -45.640625 C 28.113281 -45.492188 24.90625 -44.628906 22.15625 -43.046875 C 19.40625 -41.472656 17.207031 -39.550781 15.5625 -37.28125 C 13.914062 -35.007812 12.832031 -32.773438 12.3125 -30.578125 L 12.3125 -1.765625 C 11.65625 -1.984375 11.109375 -2.09375 10.671875 -2.09375 C 9.566406 -2.09375 8.648438 -1.722656 7.921875 -0.984375 C 8.140625 -1.054688 8.503906 -1.09375 9.015625 -1.09375 C 10.335938 -1.09375 11.4375 -0.726562 12.3125 0 C 14.882812 2.34375 16.171875 5.128906 16.171875 8.359375 C 16.171875 9.679688 15.96875 10.925781 15.5625 12.09375 C 15.15625 13.269531 14.660156 14.222656 14.078125 14.953125 C 14.148438 14.515625 14.1875 13.894531 14.1875 13.09375 C 14.1875 10.082031 13.285156 7.585938 11.484375 5.609375 C 9.691406 3.628906 7.441406 2.640625 4.734375 2.640625 C 3.484375 2.640625 2.34375 2.820312 1.3125 3.1875 C 3.300781 2.019531 4.40625 0.222656 4.625 -2.203125 L 4.625 -13.53125 C 4.476562 -16.238281 4.164062 -18.363281 3.6875 -19.90625 C 3.207031 -21.445312 2.34375 -22.546875 1.09375 -23.203125 C 1.832031 -23.203125 2.601562 -22.890625 3.40625 -22.265625 C 4.21875 -21.648438 4.625 -21.082031 4.625 -20.5625 L 4.625 -60.828125 C 4.476562 -63.535156 4.164062 -65.660156 3.6875 -67.203125 C 3.207031 -68.742188 2.34375 -69.84375 1.09375 -70.5 C 1.832031 -70.5 2.601562 -70.1875 3.40625 -69.5625 C 4.21875 -68.9375 4.625 -68.367188 4.625 -67.859375 L 4.625 -68.84375 C 4.550781 -70.238281 4.273438 -71.285156 3.796875 -71.984375 C 3.316406 -72.679688 2.566406 -73.359375 1.546875 -74.015625 C 5.648438 -74.304688 8.742188 -75.332031 10.828125 -77.09375 C 12.921875 -78.851562 13.785156 -81.054688 13.421875 -83.703125 C 13.785156 -82.597656 13.96875 -81.5 13.96875 -80.40625 C 13.96875 -79.59375 13.75 -78.453125 13.3125 -76.984375 C 12.644531 -74.492188 12.3125 -72.257812 12.3125 -70.28125 L 12.3125 -67.96875 C 12.6875 -69.363281 13.054688 -70.460938 13.421875 -71.265625 L 13.53125 -71.265625 C 12.789062 -69.140625 12.421875 -66.941406 12.421875 -64.671875 C 12.421875 -62.035156 12.753906 -59.984375 13.421875 -58.515625 C 13.054688 -60.347656 12.875 -62.328125 12.875 -64.453125 C 12.875 -70.898438 15.328125 -75.257812 20.234375 -77.53125 C 22.359375 -78.488281 24.171875 -79.660156 25.671875 -81.046875 C 27.179688 -82.441406 28.890625 -84.316406 30.796875 -86.671875 L 31.125 -86.671875 C 28.5625 -83.296875 27.28125 -80.25 27.28125 -77.53125 C 27.28125 -75.78125 27.789062 -74.296875 28.8125 -73.078125 C 29.84375 -71.867188 31.347656 -71.082031 33.328125 -70.71875 C 30.609375 -69.84375 29.03125 -68.707031 28.59375 -67.3125 Z M 24.09375 -64.34375 C 24.09375 -66.46875 23.832031 -68.171875 23.3125 -69.453125 C 22.800781 -70.734375 21.738281 -72.109375 20.125 -73.578125 C 18.363281 -73.140625 16.929688 -71.671875 15.828125 -69.171875 C 14.734375 -66.679688 14.1875 -63.863281 14.1875 -60.71875 C 14.1875 -58.582031 14.460938 -56.597656 15.015625 -54.765625 C 15.566406 -52.929688 16.351562 -51.46875 17.375 -50.375 L 17.15625 -50.265625 C 14.664062 -52.753906 13.050781 -55.613281 12.3125 -58.84375 L 12.3125 -43.21875 C 12.613281 -43.738281 13.109375 -44.195312 13.796875 -44.59375 C 14.492188 -45 15.101562 -45.203125 15.625 -45.203125 C 13.789062 -44.253906 12.6875 -42.054688 12.3125 -38.609375 L 12.3125 -33.21875 C 13.34375 -36.738281 14.847656 -39.742188 16.828125 -42.234375 C 18.804688 -44.722656 21.226562 -46.484375 24.09375 -47.515625 Z M 24.09375 -64.34375 "/></g></g></g><g fill="#f8f8ff" fill-opacity="1"><g transform="translate(546.239019, 146.625004)"><g><path d="M 28.59375 -67.3125 C 29.332031 -68.332031 30.394531 -68.84375 31.78125 -68.84375 L 31.78125 -45.640625 C 28.113281 -45.492188 24.90625 -44.628906 22.15625 -43.046875 C 19.40625 -41.472656 17.207031 -39.550781 15.5625 -37.28125 C 13.914062 -35.007812 12.832031 -32.773438 12.3125 -30.578125 L 12.3125 -1.765625 C 11.65625 -1.984375 11.109375 -2.09375 10.671875 -2.09375 C 9.566406 -2.09375 8.648438 -1.722656 7.921875 -0.984375 C 8.140625 -1.054688 8.503906 -1.09375 9.015625 -1.09375 C 10.335938 -1.09375 11.4375 -0.726562 12.3125 0 C 14.882812 2.34375 16.171875 5.128906 16.171875 8.359375 C 16.171875 9.679688 15.96875 10.925781 15.5625 12.09375 C 15.15625 13.269531 14.660156 14.222656 14.078125 14.953125 C 14.148438 14.515625 14.1875 13.894531 14.1875 13.09375 C 14.1875 10.082031 13.285156 7.585938 11.484375 5.609375 C 9.691406 3.628906 7.441406 2.640625 4.734375 2.640625 C 3.484375 2.640625 2.34375 2.820312 1.3125 3.1875 C 3.300781 2.019531 4.40625 0.222656 4.625 -2.203125 L 4.625 -13.53125 C 4.476562 -16.238281 4.164062 -18.363281 3.6875 -19.90625 C 3.207031 -21.445312 2.34375 -22.546875 1.09375 -23.203125 C 1.832031 -23.203125 2.601562 -22.890625 3.40625 -22.265625 C 4.21875 -21.648438 4.625 -21.082031 4.625 -20.5625 L 4.625 -60.828125 C 4.476562 -63.535156 4.164062 -65.660156 3.6875 -67.203125 C 3.207031 -68.742188 2.34375 -69.84375 1.09375 -70.5 C 1.832031 -70.5 2.601562 -70.1875 3.40625 -69.5625 C 4.21875 -68.9375 4.625 -68.367188 4.625 -67.859375 L 4.625 -68.84375 C 4.550781 -70.238281 4.273438 -71.285156 3.796875 -71.984375 C 3.316406 -72.679688 2.566406 -73.359375 1.546875 -74.015625 C 5.648438 -74.304688 8.742188 -75.332031 10.828125 -77.09375 C 12.921875 -78.851562 13.785156 -81.054688 13.421875 -83.703125 C 13.785156 -82.597656 13.96875 -81.5 13.96875 -80.40625 C 13.96875 -79.59375 13.75 -78.453125 13.3125 -76.984375 C 12.644531 -74.492188 12.3125 -72.257812 12.3125 -70.28125 L 12.3125 -67.96875 C 12.6875 -69.363281 13.054688 -70.460938 13.421875 -71.265625 L 13.53125 -71.265625 C 12.789062 -69.140625 12.421875 -66.941406 12.421875 -64.671875 C 12.421875 -62.035156 12.753906 -59.984375 13.421875 -58.515625 C 13.054688 -60.347656 12.875 -62.328125 12.875 -64.453125 C 12.875 -70.898438 15.328125 -75.257812 20.234375 -77.53125 C 22.359375 -78.488281 24.171875 -79.660156 25.671875 -81.046875 C 27.179688 -82.441406 28.890625 -84.316406 30.796875 -86.671875 L 31.125 -86.671875 C 28.5625 -83.296875 27.28125 -80.25 27.28125 -77.53125 C 27.28125 -75.78125 27.789062 -74.296875 28.8125 -73.078125 C 29.84375 -71.867188 31.347656 -71.082031 33.328125 -70.71875 C 30.609375 -69.84375 29.03125 -68.707031 28.59375 -67.3125 Z M 24.09375 -64.34375 C 24.09375 -66.46875 23.832031 -68.171875 23.3125 -69.453125 C 22.800781 -70.734375 21.738281 -72.109375 20.125 -73.578125 C 18.363281 -73.140625 16.929688 -71.671875 15.828125 -69.171875 C 14.734375 -66.679688 14.1875 -63.863281 14.1875 -60.71875 C 14.1875 -58.582031 14.460938 -56.597656 15.015625 -54.765625 C 15.566406 -52.929688 16.351562 -51.46875 17.375 -50.375 L 17.15625 -50.265625 C 14.664062 -52.753906 13.050781 -55.613281 12.3125 -58.84375 L 12.3125 -43.21875 C 12.613281 -43.738281 13.109375 -44.195312 13.796875 -44.59375 C 14.492188 -45 15.101562 -45.203125 15.625 -45.203125 C 13.789062 -44.253906 12.6875 -42.054688 12.3125 -38.609375 L 12.3125 -33.21875 C 13.34375 -36.738281 14.847656 -39.742188 16.828125 -42.234375 C 18.804688 -44.722656 21.226562 -46.484375 24.09375 -47.515625 Z M 24.09375 -64.34375 "/></g></g></g><g fill="#f8f8ff" fill-opacity="1"><g transform="translate(583.962635, 146.625004)"><g><path d="M 34.3125 0 C 36.882812 2.050781 38.171875 4.765625 38.171875 8.140625 C 38.171875 9.535156 37.96875 10.835938 37.5625 12.046875 C 37.15625 13.253906 36.660156 14.222656 36.078125 14.953125 C 36.148438 14.515625 36.1875 13.894531 36.1875 13.09375 C 36.1875 10.082031 35.285156 7.585938 33.484375 5.609375 C 31.691406 3.628906 29.4375 2.640625 26.71875 2.640625 C 25.476562 2.640625 24.34375 2.820312 23.3125 3.1875 C 25.289062 2.019531 26.390625 0.222656 26.609375 -2.203125 L 26.609375 -16.28125 C 26.390625 -18.40625 26.039062 -20.085938 25.5625 -21.328125 C 25.09375 -22.578125 24.304688 -23.5 23.203125 -24.09375 C 23.796875 -24.09375 24.457031 -23.851562 25.1875 -23.375 C 25.914062 -22.894531 26.390625 -22.398438 26.609375 -21.890625 L 26.609375 -41.359375 C 24.859375 -40.984375 23.6875 -40.03125 23.09375 -38.5 C 22.726562 -40.1875 21.957031 -41.191406 20.78125 -41.515625 C 19.613281 -41.847656 17.894531 -42.015625 15.625 -42.015625 L 12.3125 -42.015625 L 12.3125 -1.765625 C 11.65625 -1.984375 11.109375 -2.09375 10.671875 -2.09375 C 9.566406 -2.09375 8.648438 -1.722656 7.921875 -0.984375 C 8.140625 -1.054688 8.503906 -1.09375 9.015625 -1.09375 C 10.335938 -1.09375 11.4375 -0.726562 12.3125 0 C 14.882812 2.34375 16.171875 5.128906 16.171875 8.359375 C 16.171875 9.679688 15.96875 10.925781 15.5625 12.09375 C 15.15625 13.269531 14.660156 14.222656 14.078125 14.953125 C 14.148438 14.515625 14.1875 13.894531 14.1875 13.09375 C 14.1875 10.082031 13.285156 7.585938 11.484375 5.609375 C 9.691406 3.628906 7.441406 2.640625 4.734375 2.640625 C 3.484375 2.640625 2.34375 2.820312 1.3125 3.1875 C 3.300781 2.019531 4.40625 0.222656 4.625 -2.203125 L 4.625 -14.078125 C 4.476562 -16.785156 4.164062 -18.910156 3.6875 -20.453125 C 3.207031 -21.992188 2.34375 -23.09375 1.09375 -23.75 C 1.832031 -23.75 2.601562 -23.4375 3.40625 -22.8125 C 4.21875 -22.195312 4.625 -21.628906 4.625 -21.109375 L 4.625 -68.734375 L 21.109375 -77.765625 L 23.640625 -78.96875 C 26.066406 -80.144531 27.992188 -81.191406 29.421875 -82.109375 C 30.847656 -83.023438 32.148438 -84.175781 33.328125 -85.5625 L 33.65625 -85.5625 C 31.09375 -82.195312 29.8125 -79.15625 29.8125 -76.4375 C 29.8125 -74.675781 30.320312 -73.191406 31.34375 -71.984375 C 32.375 -70.773438 33.878906 -69.988281 35.859375 -69.625 C 33.140625 -68.738281 31.5625 -67.597656 31.125 -66.203125 C 31.851562 -67.234375 32.914062 -67.75 34.3125 -67.75 L 34.3125 -51.46875 C 34.53125 -51.988281 35.003906 -52.484375 35.734375 -52.953125 C 36.472656 -53.429688 37.132812 -53.671875 37.71875 -53.671875 C 36.625 -53.085938 35.835938 -52.171875 35.359375 -50.921875 C 34.878906 -49.671875 34.53125 -47.984375 34.3125 -45.859375 L 34.3125 -1.765625 C 33.65625 -1.984375 33.109375 -2.09375 32.671875 -2.09375 C 31.566406 -2.09375 30.648438 -1.722656 29.921875 -0.984375 C 30.140625 -1.054688 30.503906 -1.09375 31.015625 -1.09375 C 32.335938 -1.09375 33.4375 -0.726562 34.3125 0 Z M 23.53125 -48.71875 C 23.90625 -47.40625 24.929688 -46.160156 26.609375 -44.984375 L 26.609375 -63.234375 C 26.609375 -65.296875 26.296875 -66.96875 25.671875 -68.25 C 25.054688 -69.53125 23.867188 -70.941406 22.109375 -72.484375 C 20.128906 -72.035156 18.625 -70.785156 17.59375 -68.734375 C 16.570312 -66.679688 16.0625 -64.226562 16.0625 -61.375 C 16.0625 -59.03125 16.40625 -56.753906 17.09375 -54.546875 C 17.789062 -52.347656 18.726562 -50.585938 19.90625 -49.265625 L 19.6875 -49.15625 C 17.488281 -50.769531 15.835938 -52.878906 14.734375 -55.484375 C 13.640625 -58.085938 13.09375 -60.707031 13.09375 -63.34375 C 13.09375 -66.0625 13.566406 -68.15625 14.515625 -69.625 L 14.625 -69.625 C 14.113281 -68.082031 13.859375 -66.46875 13.859375 -64.78125 C 13.859375 -61.84375 14.40625 -59.09375 15.5 -56.53125 C 14.769531 -59.238281 14.40625 -61.84375 14.40625 -64.34375 C 14.40625 -67.644531 15.066406 -70.539062 16.390625 -73.03125 C 15.140625 -71.78125 14.164062 -70.421875 13.46875 -68.953125 C 12.769531 -67.492188 12.382812 -65.664062 12.3125 -63.46875 L 12.3125 -46.40625 L 17.8125 -46.40625 C 19.570312 -46.40625 20.835938 -46.5 21.609375 -46.6875 C 22.378906 -46.875 23.019531 -47.550781 23.53125 -48.71875 Z M 23.53125 -48.71875 "/></g></g></g><g fill="#f8f8ff" fill-opacity="1"><g transform="translate(626.525362, 146.625004)"><g><path d="M 34.3125 0 C 36.882812 2.34375 38.171875 5.128906 38.171875 8.359375 C 38.171875 9.679688 37.96875 10.925781 37.5625 12.09375 C 37.15625 13.269531 36.660156 14.222656 36.078125 14.953125 C 36.148438 14.515625 36.1875 13.894531 36.1875 13.09375 C 36.1875 10.082031 35.285156 7.585938 33.484375 5.609375 C 31.691406 3.628906 29.4375 2.640625 26.71875 2.640625 C 25.476562 2.640625 24.34375 2.820312 23.3125 3.1875 C 25.289062 2.019531 26.390625 0.222656 26.609375 -2.203125 L 26.609375 -33.546875 C 26.609375 -35.671875 26.242188 -37.539062 25.515625 -39.15625 C 24.785156 -40.769531 23.613281 -42.347656 22 -43.890625 C 19.132812 -42.859375 16.859375 -40.910156 15.171875 -38.046875 C 13.484375 -35.191406 12.53125 -32.519531 12.3125 -30.03125 L 12.3125 -1.765625 C 11.65625 -1.984375 11.109375 -2.09375 10.671875 -2.09375 C 9.566406 -2.09375 8.648438 -1.722656 7.921875 -0.984375 C 8.140625 -1.054688 8.503906 -1.09375 9.015625 -1.09375 C 10.335938 -1.09375 11.4375 -0.726562 12.3125 0 C 14.882812 2.34375 16.171875 5.128906 16.171875 8.359375 C 16.171875 9.679688 15.96875 10.925781 15.5625 12.09375 C 15.15625 13.269531 14.660156 14.222656 14.078125 14.953125 C 14.148438 14.515625 14.1875 13.894531 14.1875 13.09375 C 14.1875 10.082031 13.285156 7.585938 11.484375 5.609375 C 9.691406 3.628906 7.441406 2.640625 4.734375 2.640625 C 3.484375 2.640625 2.34375 2.820312 1.3125 3.1875 C 3.300781 2.019531 4.40625 0.222656 4.625 -2.203125 L 4.625 -13.53125 C 4.476562 -16.238281 4.164062 -18.363281 3.6875 -19.90625 C 3.207031 -21.445312 2.34375 -22.546875 1.09375 -23.203125 C 1.832031 -23.203125 2.601562 -22.890625 3.40625 -22.265625 C 4.21875 -21.648438 4.625 -21.082031 4.625 -20.5625 L 4.625 -60.828125 C 4.476562 -63.535156 4.164062 -65.660156 3.6875 -67.203125 C 3.207031 -68.742188 2.34375 -69.84375 1.09375 -70.5 C 1.832031 -70.5 2.601562 -70.1875 3.40625 -69.5625 C 4.21875 -68.9375 4.625 -68.367188 4.625 -67.859375 L 4.625 -68.84375 C 4.550781 -70.238281 4.273438 -71.285156 3.796875 -71.984375 C 3.316406 -72.679688 2.566406 -73.359375 1.546875 -74.015625 C 5.648438 -74.304688 8.742188 -75.332031 10.828125 -77.09375 C 12.921875 -78.851562 13.785156 -81.054688 13.421875 -83.703125 C 13.785156 -82.597656 13.96875 -81.5 13.96875 -80.40625 C 13.96875 -79.59375 13.75 -78.453125 13.3125 -76.984375 C 12.644531 -74.492188 12.3125 -72.257812 12.3125 -70.28125 L 12.3125 -67.96875 C 12.6875 -69.363281 13.054688 -70.460938 13.421875 -71.265625 L 13.53125 -71.265625 C 12.789062 -69.140625 12.421875 -66.941406 12.421875 -64.671875 C 12.421875 -62.035156 12.753906 -59.984375 13.421875 -58.515625 C 13.054688 -60.347656 12.875 -62.328125 12.875 -64.453125 C 12.875 -70.898438 15.328125 -75.257812 20.234375 -77.53125 C 22.359375 -78.488281 24.171875 -79.660156 25.671875 -81.046875 C 27.179688 -82.441406 28.890625 -84.316406 30.796875 -86.671875 L 31.125 -86.671875 C 28.5625 -83.296875 27.28125 -80.25 27.28125 -77.53125 C 27.28125 -75.78125 27.789062 -74.296875 28.8125 -73.078125 C 29.84375 -71.867188 31.347656 -71.082031 33.328125 -70.71875 C 30.609375 -69.84375 29.03125 -68.707031 28.59375 -67.3125 C 29.332031 -68.332031 30.394531 -68.84375 31.78125 -68.84375 L 31.78125 -50.046875 C 25.914062 -49.828125 20.96875 -47.585938 16.9375 -43.328125 C 18.476562 -44.578125 20.144531 -45.566406 21.9375 -46.296875 C 23.738281 -47.035156 25.445312 -47.40625 27.0625 -47.40625 C 27.789062 -47.40625 28.335938 -47.367188 28.703125 -47.296875 C 29.285156 -45.753906 30.128906 -44.320312 31.234375 -43 C 32.335938 -41.6875 33.363281 -40.734375 34.3125 -40.140625 L 34.3125 -1.765625 C 33.65625 -1.984375 33.109375 -2.09375 32.671875 -2.09375 C 31.566406 -2.09375 30.648438 -1.722656 29.921875 -0.984375 C 30.140625 -1.054688 30.503906 -1.09375 31.015625 -1.09375 C 32.335938 -1.09375 33.4375 -0.726562 34.3125 0 Z M 17.15625 -50.265625 C 14.664062 -52.753906 13.050781 -55.613281 12.3125 -58.84375 L 12.3125 -46.515625 C 12.613281 -47.035156 13.109375 -47.492188 13.796875 -47.890625 C 14.492188 -48.296875 15.101562 -48.5 15.625 -48.5 C 13.789062 -47.550781 12.6875 -45.351562 12.3125 -41.90625 L 12.3125 -37.609375 C 13.34375 -41.128906 14.847656 -44.132812 16.828125 -46.625 C 18.804688 -49.125 21.226562 -50.882812 24.09375 -51.90625 L 24.09375 -64.34375 C 24.09375 -66.46875 23.832031 -68.171875 23.3125 -69.453125 C 22.800781 -70.734375 21.738281 -72.109375 20.125 -73.578125 C 18.363281 -73.140625 16.929688 -71.671875 15.828125 -69.171875 C 14.734375 -66.679688 14.1875 -63.863281 14.1875 -60.71875 C 14.1875 -58.582031 14.460938 -56.597656 15.015625 -54.765625 C 15.566406 -52.929688 16.351562 -51.46875 17.375 -50.375 Z M 17.15625 -50.265625 "/></g></g></g><g fill="#f8f8ff" fill-opacity="1"><g transform="translate(669.088089, 146.625004)"><g><path d="M 34.3125 -7.703125 L 34.3125 0 L 16.171875 9.78125 C 15.878906 11.914062 15.179688 13.640625 14.078125 14.953125 C 14.148438 14.515625 14.1875 13.894531 14.1875 13.09375 C 14.1875 10.082031 13.285156 7.585938 11.484375 5.609375 C 9.691406 3.628906 7.441406 2.640625 4.734375 2.640625 C 3.484375 2.640625 2.34375 2.820312 1.3125 3.1875 C 3.300781 2.019531 4.40625 0.222656 4.625 -2.203125 L 4.625 -13.53125 C 4.476562 -16.238281 4.164062 -18.363281 3.6875 -19.90625 C 3.207031 -21.445312 2.34375 -22.546875 1.09375 -23.203125 C 1.832031 -23.203125 2.601562 -22.890625 3.40625 -22.265625 C 4.21875 -21.648438 4.625 -21.082031 4.625 -20.5625 L 4.625 -65 C 4.25 -68.519531 3.144531 -70.753906 1.3125 -71.703125 C 1.832031 -71.703125 2.398438 -71.519531 3.015625 -71.15625 C 3.640625 -70.789062 4.140625 -70.390625 4.515625 -69.953125 C 4.367188 -70.898438 4.054688 -71.6875 3.578125 -72.3125 C 3.097656 -72.9375 2.421875 -73.503906 1.546875 -74.015625 C 5.648438 -74.304688 8.742188 -75.332031 10.828125 -77.09375 C 12.921875 -78.851562 13.785156 -81.054688 13.421875 -83.703125 C 13.785156 -82.597656 13.96875 -81.457031 13.96875 -80.28125 C 13.96875 -79.550781 13.75 -78.378906 13.3125 -76.765625 C 13.238281 -76.472656 13.128906 -76.085938 12.984375 -75.609375 C 12.835938 -75.140625 12.6875 -74.535156 12.53125 -73.796875 C 15.757812 -73.796875 18.21875 -73.90625 19.90625 -74.125 C 21.738281 -74.34375 23.257812 -75.113281 24.46875 -76.4375 C 25.675781 -77.757812 27.160156 -79.847656 28.921875 -82.703125 L 30.578125 -85.34375 L 30.796875 -85.234375 C 28.960938 -81.929688 28.046875 -78.78125 28.046875 -75.78125 C 28.046875 -72.039062 29.695312 -69.878906 33 -69.296875 C 30.28125 -68.410156 28.703125 -67.269531 28.265625 -65.875 C 28.992188 -66.90625 30.054688 -67.421875 31.453125 -67.421875 L 31.453125 -64.671875 L 27.9375 -62.6875 C 27.125 -62.175781 26.5 -61.570312 26.0625 -60.875 C 25.625 -60.175781 25.40625 -59.460938 25.40625 -58.734375 C 25.40625 -57.554688 25.992188 -56.640625 27.171875 -55.984375 C 24.890625 -56.421875 23.75 -57.882812 23.75 -60.375 L 23.75 -60.71875 C 23.75 -61.007812 23.75 -61.957031 23.75 -63.5625 C 23.75 -65.175781 23.421875 -66.644531 22.765625 -67.96875 C 22.109375 -69.289062 21.117188 -70.460938 19.796875 -71.484375 C 17.234375 -71.484375 15.421875 -71.023438 14.359375 -70.109375 C 13.296875 -69.191406 12.613281 -67.523438 12.3125 -65.109375 L 12.3125 -50.59375 L 17.15625 -50.59375 C 19.945312 -50.59375 21.984375 -49.835938 23.265625 -48.328125 C 24.546875 -46.828125 25.1875 -45.015625 25.1875 -42.890625 C 25.1875 -41.867188 25.054688 -40.898438 24.796875 -39.984375 C 24.546875 -39.066406 24.195312 -38.347656 23.75 -37.828125 C 23.90625 -39.003906 23.984375 -39.773438 23.984375 -40.140625 C 23.984375 -42.640625 23.117188 -44.269531 21.390625 -45.03125 C 19.671875 -45.800781 17.015625 -46.1875 13.421875 -46.1875 L 12.3125 -46.1875 L 12.3125 -37.5 C 12.53125 -38.019531 13.003906 -38.515625 13.734375 -38.984375 C 14.472656 -39.460938 15.140625 -39.703125 15.734375 -39.703125 C 14.628906 -39.117188 13.835938 -38.203125 13.359375 -36.953125 C 12.878906 -35.703125 12.53125 -34.015625 12.3125 -31.890625 L 12.3125 -3.734375 C 11.65625 -3.878906 10.90625 -3.84375 10.0625 -3.625 C 9.21875 -3.40625 8.503906 -3.039062 7.921875 -2.53125 C 8.503906 -2.75 9.164062 -2.859375 9.90625 -2.859375 C 11.070312 -2.859375 11.875 -2.640625 12.3125 -2.203125 C 12.832031 -0.660156 14.171875 0.953125 16.328125 2.640625 C 18.492188 4.328125 20.382812 5.171875 22 5.171875 C 23.90625 4.140625 25.148438 2.960938 25.734375 1.640625 C 26.316406 0.328125 26.609375 -1.28125 26.609375 -3.1875 C 26.460938 -5.832031 26.148438 -7.867188 25.671875 -9.296875 C 25.203125 -10.722656 24.304688 -11.65625 22.984375 -12.09375 C 23.867188 -12.09375 25.003906 -11.726562 26.390625 -11 Z M 34.3125 -7.703125 "/></g></g></g><g fill="#f8f8ff" fill-opacity="1"><g transform="translate(707.801527, 146.625004)"><g><path d="M 33.984375 1.765625 L 33.984375 3.078125 C 33.546875 3.296875 32.628906 3.753906 31.234375 4.453125 C 29.835938 5.148438 28.460938 5.972656 27.109375 6.921875 C 25.753906 7.878906 24.710938 8.984375 23.984375 10.234375 L 15.734375 5.828125 C 15.953125 6.710938 16.0625 7.554688 16.0625 8.359375 C 16.0625 9.679688 15.835938 10.925781 15.390625 12.09375 C 14.953125 13.269531 14.441406 14.222656 13.859375 14.953125 C 13.929688 14.515625 13.96875 13.894531 13.96875 13.09375 C 13.96875 10.082031 13.066406 7.585938 11.265625 5.609375 C 9.472656 3.628906 7.222656 2.640625 4.515625 2.640625 C 3.265625 2.640625 2.125 2.820312 1.09375 3.1875 C 3.070312 2.019531 4.175781 0.222656 4.40625 -2.203125 L 4.40625 -11 C 4.25 -13.632812 3.914062 -15.59375 3.40625 -16.875 C 2.894531 -18.164062 2.125 -19.101562 1.09375 -19.6875 C 1.6875 -19.6875 2.3125 -19.484375 2.96875 -19.078125 C 3.625 -18.679688 4.101562 -18.222656 4.40625 -17.703125 L 4.40625 -68.84375 C 4.332031 -70.238281 4.054688 -71.285156 3.578125 -71.984375 C 3.097656 -72.679688 2.34375 -73.359375 1.3125 -74.015625 C 5.425781 -74.304688 8.523438 -75.332031 10.609375 -77.09375 C 12.703125 -78.851562 13.566406 -81.054688 13.203125 -83.703125 C 13.566406 -82.597656 13.75 -81.5 13.75 -80.40625 C 13.75 -79.59375 13.53125 -78.453125 13.09375 -76.984375 C 12.425781 -74.492188 12.09375 -72.257812 12.09375 -70.28125 L 12.09375 -52.25 C 12.09375 -52.757812 12.492188 -53.320312 13.296875 -53.9375 C 14.109375 -54.5625 14.882812 -54.875 15.625 -54.875 C 14.300781 -54.21875 13.414062 -52.914062 12.96875 -50.96875 C 12.53125 -49.03125 12.238281 -45.640625 12.09375 -40.796875 L 12.09375 -1.875 C 11.4375 -2.53125 10.554688 -2.859375 9.453125 -2.859375 C 8.210938 -2.859375 7.332031 -2.53125 6.8125 -1.875 C 7.257812 -2.019531 7.628906 -2.09375 7.921875 -2.09375 C 9.316406 -2.09375 10.707031 -1.394531 12.09375 0 C 13.414062 1.175781 14.441406 2.035156 15.171875 2.578125 C 15.910156 3.128906 17.160156 3.882812 18.921875 4.84375 C 21.117188 3.882812 22.894531 2.523438 24.25 0.765625 C 25.601562 -0.992188 26.28125 -2.898438 26.28125 -4.953125 L 26.28125 -6.375 C 26.28125 -7.476562 26.554688 -8.578125 27.109375 -9.671875 C 27.660156 -10.773438 28.523438 -11.507812 29.703125 -11.875 C 28.453125 -10.851562 27.828125 -9.5 27.828125 -7.8125 C 27.828125 -6.269531 28.488281 -4.546875 29.8125 -2.640625 Z M 33.984375 1.765625 "/></g></g></g></svg>