<?xml version="1.0" encoding="UTF-8" standalone="no"?>
<!DOCTYPE svg PUBLIC "-//W3C//DTD SVG 1.1//EN" "http://www.w3.org/Graphics/SVG/1.1/DTD/svg11.dtd">
<svg width="100%" height="100%" viewBox="0 0 1920 1280" version="1.1" xmlns="http://www.w3.org/2000/svg" xmlns:xlink="http://www.w3.org/1999/xlink" xml:space="preserve" xmlns:serif="http://www.serif.com/" style="fill-rule:evenodd;clip-rule:evenodd;stroke-linejoin:round;stroke-miterlimit:2;">
    <g transform="matrix(2.10407,0,0,2.10407,996.991,942.198)">
        <path d="M0,-141.016C0,-141.016 5.943,-142.008 5.943,-125.159C5.943,-125.159 3.59,-128.263 0,-125.159C0,-125.159 5.943,-125.381 5.943,-112.079L5.943,-75.5C5.943,-75.5 -2.26,-88.604 -9.576,-88.604C-9.576,-88.604 3.504,-78.16 -1.817,-65.302C-1.817,-65.302 10.155,-57.321 4.391,-42.689C4.391,-42.689 11.042,-42.689 11.042,-55.104C11.042,-55.104 12.372,-33.378 3.504,-34.265C3.504,-34.265 6.386,-31.161 6.386,-19.19L6.386,-2.379C6.386,-2.379 40.825,16.43 27.263,56.815C27.263,56.815 54.272,14.761 20.131,-8.754L20.131,-26.062C20.131,-26.062 19.688,-31.826 24.787,-31.826C24.787,-31.826 19.909,-32.671 19.909,-56.212L19.909,-75.5C19.909,-75.5 20.02,-97.392 28.001,-97.392C28.001,-97.392 22.57,-98.999 19.909,-96.339L19.909,-139.791C19.909,-139.791 17.692,-149.102 38.975,-160.187C38.975,-160.187 33.211,-159.744 36.093,-168.611C38.975,-177.479 34.883,-195.792 27.95,-197.831C27.95,-197.831 33.413,-157.013 0,-141.016" style="fill:white;fill-rule:nonzero;"/>
    </g>
    <g transform="matrix(2.10407,0,0,2.10407,918.969,942.198)">
        <path d="M0,-141.016C0,-141.016 -5.943,-142.008 -5.943,-125.159C-5.943,-125.159 -3.59,-128.263 0,-125.159C0,-125.159 -5.943,-125.381 -5.943,-112.079L-5.943,-75.5C-5.943,-75.5 2.26,-88.604 9.576,-88.604C9.576,-88.604 -3.504,-78.16 1.817,-65.302C1.817,-65.302 -10.155,-57.321 -4.391,-42.689C-4.391,-42.689 -11.042,-42.689 -11.042,-55.104C-11.042,-55.104 -12.372,-33.378 -3.504,-34.265C-3.504,-34.265 -6.386,-31.161 -6.386,-19.19L-6.386,-2.379C-6.386,-2.379 -40.825,16.43 -27.263,56.815C-27.263,56.815 -54.272,14.761 -20.131,-8.754L-20.131,-26.062C-20.131,-26.062 -19.688,-31.826 -24.787,-31.826C-24.787,-31.826 -19.909,-32.671 -19.909,-56.212L-19.909,-75.5C-19.909,-75.5 -19.715,-97.392 -27.696,-97.392C-27.696,-97.392 -22.57,-98.999 -19.909,-96.339L-19.909,-139.791C-19.909,-139.791 -17.692,-149.102 -38.975,-160.187C-38.975,-160.187 -33.211,-159.744 -36.093,-168.611C-38.975,-177.479 -34.883,-195.792 -27.95,-197.831C-27.95,-197.831 -33.413,-157.013 0,-141.016" style="fill:white;fill-rule:nonzero;"/>
    </g>
    <g transform="matrix(2.10407,0,0,2.10407,1074.45,977.038)">
        <path d="M0,-149.865C0,-149.865 21.948,-153.634 23.61,-169.596C23.61,-169.596 26.16,-160.95 23.278,-153.523C20.686,-146.845 20.95,-139.889 20.95,-139.889L20.95,-111.29C20.95,-111.29 25.051,-114.948 28.377,-113.951C28.377,-113.951 20.95,-112.51 21.283,-97.144C21.552,-84.69 21.283,-25.827 21.283,-25.827C21.283,-25.827 17.51,-27.26 15.021,-24.045C15.021,-24.045 21.283,-25.827 21.948,-22.169C21.948,-22.169 18.622,-5.875 25.606,-0.222C33.929,6.516 27.268,19.731 27.268,19.731C27.268,19.731 29.929,-0.222 5.986,-6.207C5.986,-6.207 6.983,-6.54 6.983,-24.164L6.983,-58.749C6.983,-58.749 2.161,-61.409 1.441,-69.058C1.441,-69.058 7.316,-65.954 7.316,-67.395L7.316,-142.882C7.316,-142.882 7.094,-147.759 0,-149.865" style="fill:white;fill-rule:nonzero;"/>
    </g>
    <g transform="matrix(2.10407,0,0,2.10407,840.552,977.038)">
        <path d="M0,-149.865C0,-149.865 -21.948,-153.634 -23.61,-169.596C-23.61,-169.596 -26.16,-160.95 -23.278,-153.523C-20.686,-146.845 -20.95,-139.889 -20.95,-139.889L-20.95,-111.29C-20.95,-111.29 -25.051,-114.948 -28.377,-113.951C-28.377,-113.951 -20.95,-112.51 -21.283,-97.144C-21.552,-84.69 -21.283,-25.827 -21.283,-25.827C-21.283,-25.827 -17.51,-27.26 -15.021,-24.045C-15.021,-24.045 -21.283,-25.827 -21.948,-22.169C-21.948,-22.169 -18.622,-5.875 -25.606,-0.222C-33.929,6.516 -27.268,19.731 -27.268,19.731C-27.268,19.731 -29.929,-0.222 -5.986,-6.207C-5.986,-6.207 -6.983,-6.54 -6.983,-24.164L-6.983,-58.749C-6.983,-58.749 -2.161,-61.409 -1.441,-69.058C-1.441,-69.058 -7.316,-65.954 -7.316,-67.395L-7.316,-142.882C-7.316,-142.882 -7.094,-147.759 0,-149.865" style="fill:white;fill-rule:nonzero;"/>
    </g>
    <g transform="matrix(2.10407,0,0,2.10407,1159.81,955.115)">
        <path d="M0,-140.111C0,-140.111 20.839,-139.668 21.726,-156.073C21.726,-156.073 24.382,-148.105 20.568,-139.189C19.837,-137.48 19.495,-135.627 19.475,-133.768L19.13,-100.705C19.13,-100.705 23.5,-104.307 28.377,-103.864C28.377,-103.864 19.149,-102.535 19.509,-78.923L19.509,-20.396C19.509,-20.396 -8.424,-3.104 5.321,15.962C5.321,15.962 -12.858,-3.104 4.877,-23.5L4.877,-49.216C4.877,-49.216 5.301,-58.971 -2.892,-59.858C-2.892,-59.858 0.887,-67.839 5.321,-64.513L5.321,-131.687C5.321,-131.687 6.318,-138.116 0,-140.111" style="fill:white;fill-rule:nonzero;"/>
    </g>
    <g transform="matrix(2.10407,0,0,2.10407,1039.35,963.978)">
        <path d="M0,-19.106C0,-19.106 13.357,-6.873 16.682,-7.76C20.008,-8.647 23.641,-13.41 23.641,-13.41L23.641,-4.656L15.162,0L0,-9.553L0,-19.106Z" style="fill:white;fill-rule:nonzero;"/>
    </g>
    <g transform="matrix(2.10407,0,0,2.10407,1120.63,968.175)">
        <path d="M0,-17.957L-2.217,-12.193C-2.217,-12.193 8.15,-1.773 7.844,0C7.844,0 10.995,-5.913 16.069,-6.52C21.143,-7.126 16.794,-17.957 16.794,-17.957C16.794,-17.957 9.809,-8.202 8.895,-8.978C7.981,-9.754 0,-17.957 0,-17.957" style="fill:white;fill-rule:nonzero;"/>
    </g>
    <g transform="matrix(2.10407,0,0,2.10407,768.452,859.256)">
        <path d="M0,-48.994C-1.995,-51.543 -2.882,-60.633 -2.882,-60.633C-3.99,-56.864 -13.312,-55.312 -13.312,-55.312L-13.312,-86.128C-13.312,-86.128 -14.309,-92.557 -7.991,-94.552C-7.991,-94.552 -28.83,-94.109 -29.717,-110.514C-29.717,-110.514 -32.373,-102.546 -28.559,-93.63C-27.828,-91.921 -27.486,-90.069 -27.466,-88.209L-27.155,-58.389C-28.756,-58.576 -30.044,-58.591 -30.665,-58.305C-33.08,-57.194 -35.182,-66.662 -32.679,-68.186C-35.521,-67.416 -44.088,-64.269 -38.576,-55.312C-33.254,-46.666 -37.297,-43.784 -37.297,-43.784C-37.297,-43.784 -29.102,-47.531 -27.845,-41.822C-27.585,-39.378 -27.451,-36.585 -27.5,-33.365L-27.5,25.163C-27.5,25.163 0.433,42.455 -13.312,61.52C-13.312,61.52 4.867,42.455 -12.868,22.059L-12.868,-3.658C-12.868,-3.658 -13.292,-13.412 -5.099,-14.299C-5.099,-14.299 -8.878,-22.28 -13.312,-18.954L-13.312,-49.318C-3.062,-48.89 -2.439,-38.02 -2.439,-38.02C0.665,-38.464 1.995,-46.445 0,-48.994" style="fill:white;fill-rule:nonzero;"/>
    </g>
    <g transform="matrix(2.10407,0,0,2.10407,699.693,715.312)">
        <path d="M0,0.226C0.004,0.225 0.244,0.077 0,0.226" style="fill:white;fill-rule:nonzero;"/>
    </g>
    <g transform="matrix(2.10407,0,0,2.10407,825.159,756.17)">
        <path d="M0,24.497C0,24.497 0.372,10.53 24.676,12.914L29.885,3.325C29.885,3.325 5.417,6.318 3.753,0C3.753,0 3.895,10.974 0,10.974C-3.895,10.974 -6.223,20.617 -6.223,20.617L0,24.497Z" style="fill:white;fill-rule:nonzero;"/>
    </g>
    <g transform="matrix(2.10407,0,0,2.10407,1303.48,977.307)">
        <path d="M0,-111.418C0,-111.418 3.991,-87.194 -11.971,-72.622C-11.971,-72.622 9.586,-76.407 11.528,-69.961C11.528,-69.961 19.758,-65.295 13.772,-47.67C13.772,-47.67 14.579,-59.858 8.593,-62.518C8.593,-62.518 15.576,-40.238 1.942,-33.255C1.942,-33.255 2.487,-5.759 -30.647,-0.998C-30.647,-0.998 10.588,4.323 23.225,-60.19C23.225,-60.19 25.22,-70.499 29.876,-70.499C29.876,-70.499 3.296,-88.782 10.198,-92.851C10.198,-92.851 6.651,-115.741 0,-111.418" style="fill:white;fill-rule:nonzero;"/>
    </g>
    <g transform="matrix(2.10407,0,0,2.10407,1227.91,923.777)">
        <path d="M0,-141.179C0,-141.179 2.217,-115.463 20.839,-126.547L18.622,-55.162C18.622,-55.162 20.396,-60.808 25.717,-61.754C25.717,-61.754 18.179,-49.841 18.179,-42.747L18.179,-23.681C18.179,-23.681 19.066,-16.144 25.717,-16.587C25.717,-16.587 -2.217,-14.006 7.981,0C7.981,0 -9.755,-5.946 3.104,-17.917C3.104,-17.917 2.217,-13.927 3.547,-28.558C4.877,-43.19 3.547,-117.236 3.547,-117.236C3.547,-117.236 -7.981,-129.651 0,-141.179" style="fill:white;fill-rule:nonzero;"/>
    </g>
    <g transform="matrix(2.10407,0,0,2.10407,1277.36,835.259)">
        <path d="M0,-130.146C0,-130.146 11.085,-134.58 18.622,-117.731C18.622,-117.731 26.16,-111.967 26.16,-111.967C26.16,-111.967 20.839,-114.957 20.839,-89.798C20.839,-61.864 21.726,-37.478 21.726,-37.478C21.726,-37.478 46.999,-69.486 44.339,-84.076C44.339,-84.076 46.556,-106.646 36.358,-109.307C36.358,-109.307 15.519,-101.769 24.83,-88.911C24.83,-88.911 9.311,-99.774 35.028,-116.401C35.028,-116.401 61.188,-131.033 56.31,-141.231C56.31,-141.231 61.631,-132.363 51.433,-115.958C51.433,-115.958 41.235,-103.099 61.631,-102.213C61.631,-102.213 53.207,-102.213 51.876,-94.675C51.876,-94.675 58.527,-99.996 59.857,-96.448L59.857,-67.628C59.857,-67.628 61.188,-75.609 67.838,-73.836C67.838,-73.836 58.971,-68.694 59.857,-49.228L59.857,-7.549C59.857,-7.549 62.961,-1.12 67.838,-2.007C67.838,-2.007 80.253,-1.097 80.253,11.085C80.253,11.085 65.178,-4.667 56.31,4.644C56.31,4.644 45.562,-2.45 42.29,5.974C42.29,5.974 40.792,0.21 47.886,-2.45C47.886,-2.45 50.546,-5.554 44.339,-7.549L43.895,-65.073C43.895,-65.073 17.349,-34.256 23.085,-19.683L0.443,-5.111C0.443,-5.111 5.321,0.099 5.321,-25.34C5.321,-25.34 6.207,-40.582 0,-46.789C0,-46.789 1.774,-49.671 4.877,-46.789L5.764,-99.109C5.764,-99.109 6.207,-106.646 0,-107.533C0,-107.533 8.836,-107.901 8.868,-118.618C8.868,-118.618 10.198,-127.264 0,-130.146" style="fill:white;fill-rule:nonzero;"/>
    </g>
    <g transform="matrix(0,-2.10407,-2.10407,0,1257.36,614.963)">
        <path d="M-8.727,-8.727C-13.547,-8.727 -17.454,-4.82 -17.454,-0C-17.454,4.82 -13.547,8.727 -8.727,8.727C-3.907,8.727 -0,4.82 -0,-0C-0,-4.82 -3.907,-8.727 -8.727,-8.727" style="fill:white;fill-rule:nonzero;"/>
    </g>
    <g transform="matrix(2.10407,0,0,2.10407,386.422,866.804)">
        <path d="M0,-135.788C0,-135.788 28.598,-148.02 53.207,-173.919C53.207,-173.919 39.905,-145.986 58.971,-141.109C58.971,-141.109 50.103,-139.335 49.659,-135.788C49.659,-135.788 58.073,-140.311 58.527,-135.606C59.636,-124.127 48.071,-75.956 42.122,-75.527C42.122,-75.527 15.74,-91.71 16.299,-75.527L16.849,-50.904C16.849,-50.904 9.755,-54.205 6.651,-49.771C6.651,-49.771 15.962,-50.619 15.962,-46.337C15.962,-46.337 15.075,-32.361 19.066,-31.976C19.066,-31.976 6.651,-17.824 25.273,-1.208C25.273,-1.208 3.991,-30.262 41.235,-41.125C41.235,-41.125 47.4,-54.214 31.924,-61.52C31.924,-61.52 50.375,-57.146 56.754,-46.337L56.754,-31.976C56.754,-31.976 37.688,-40.903 29.485,-17.403C29.485,-17.403 24.83,-0.555 35.471,2.992C35.471,2.992 21.283,26.492 65.621,36.247C65.621,36.247 25.273,38.131 10.198,-5.875C10.198,-5.875 3.104,-33.212 -5.321,-37.633C-5.321,-37.633 0.443,-36.469 0.443,-49.771C0.443,-63.072 0.887,-68.831 0.887,-68.831C0.887,-68.831 0.186,-78.862 -5.321,-82.581C-5.321,-82.581 -1.845,-83.123 0.186,-78.862L0,-135.788ZM12.055,-89.978C12.055,-89.978 28.231,-99.469 38.575,-90.602C38.575,-90.602 47.886,-116.27 43.896,-126.841C39.905,-137.413 30.816,-135.605 30.816,-135.605C30.816,-135.605 12.193,-134.719 13.302,-131.172C14.41,-127.624 17.957,-129.398 17.957,-129.398C17.957,-129.398 16.867,-124.207 14.429,-126.354L15.519,-98.804C15.519,-98.804 20.618,-100.134 21.726,-98.582C21.726,-98.582 13.385,-96.851 12.055,-89.978Z" style="fill:white;"/>
    </g>
    <g transform="matrix(2.10407,0,0,2.10407,1528.31,866.804)">
        <path d="M0,-135.788L-0.186,-78.862C1.845,-83.123 5.321,-82.581 5.321,-82.581C-0.186,-78.862 -0.887,-68.831 -0.887,-68.831C-0.887,-68.831 -0.443,-63.072 -0.443,-49.771C-0.443,-36.469 5.321,-37.633 5.321,-37.633C-3.104,-33.212 -10.198,-5.875 -10.198,-5.875C-25.273,38.131 -65.621,36.247 -65.621,36.247C-21.283,26.492 -35.471,2.992 -35.471,2.992C-24.83,-0.555 -29.485,-17.403 -29.485,-17.403C-37.688,-40.903 -56.754,-31.976 -56.754,-31.976L-56.754,-46.337C-50.375,-57.146 -31.924,-61.52 -31.924,-61.52C-47.4,-54.214 -41.235,-41.125 -41.235,-41.125C-3.991,-30.262 -25.273,-1.208 -25.273,-1.208C-6.651,-17.824 -19.066,-31.976 -19.066,-31.976C-15.075,-32.361 -15.962,-46.337 -15.962,-46.337C-15.962,-50.619 -6.651,-49.771 -6.651,-49.771C-9.755,-54.205 -16.849,-50.904 -16.849,-50.904L-15.962,-90.562C-12.415,-102.977 -33.254,-74.64 -33.254,-74.64C-41.02,-74.534 -50.024,-86.96 -53.872,-102.239C-57.64,-117.205 -56.31,-130.299 -56.31,-135.788C-55.424,-138.448 -49.659,-135.788 -49.659,-135.788C-50.103,-139.335 -58.971,-141.109 -58.971,-141.109C-39.905,-145.986 -53.207,-173.919 -53.207,-173.919C-37.245,-148.02 0,-135.788 0,-135.788ZM-26.16,-98.139C-26.493,-107.284 -22.003,-105.621 -22.003,-105.621C-23.999,-97.64 -17.197,-98.804 -17.197,-98.804L-16.107,-126.354C-18.545,-124.207 -19.636,-129.398 -19.636,-129.398C-19.636,-129.398 -16.088,-127.624 -14.98,-131.171C-13.871,-134.719 -32.494,-135.605 -32.494,-135.605C-32.494,-135.605 -42.474,-137.707 -45.574,-126.841C-50.103,-110.965 -35.028,-84.394 -35.028,-84.394C-22.502,-94.647 -26.16,-98.139 -26.16,-98.139Z" style="fill:white;"/>
    </g>
    <g transform="matrix(2.10407,0,0,2.10407,373.928,1146.36)">
        <path d="M-56.732,-274.907C-53.487,-285.204 -47.069,-293.422 -39.648,-294.865C-21.349,-298.423 -4.575,-316.136 -4.575,-316.136C-27.448,-282.438 0.617,-280.886 0.617,-280.886C-3.253,-280.886 -10.402,-275.649 -13.382,-273.327C-10.065,-274.901 -2.542,-274.901 -2.542,-274.901L-2.542,-120.158L-11.183,-116.611C4.575,-114.837 0,-109.073 0,-109.073L-50.83,-84.687C-68.621,-75.819 -63.538,-57.197 -63.538,-57.197C-62.521,-72.716 -52.863,-70.942 -52.863,-70.942C-68.112,-47.886 -44.731,-40.219 -44.731,-40.219C-50.83,-8.165 0,0.887 0,0.887C0,0.887 -73.704,-0 -78.279,-65.178C-82.853,-130.356 -158.59,-145.431 -158.59,-145.431C-112.843,-149.422 -79.295,-105.788 -79.295,-105.788L-80.82,-141.441C-67.604,-147.648 -71.162,-177.619 -71.162,-177.619C-81.328,-138.865 -114.876,-145.431 -114.876,-145.431C-66.588,-148.978 -89.588,-197.086 -89.588,-197.086C-100.898,-241.203 -179.177,-235.104 -179.177,-235.104C-113.86,-251.175 -78.279,-208.836 -78.279,-208.836L-79.803,-280.886C-106.235,-238.543 -166.215,-250.071 -166.215,-250.071C-166.215,-250.071 -98.611,-239.429 -80.312,-316.136C-62.013,-392.842 0,-391.955 0,-391.955C-53.372,-377.767 -43.206,-356.927 -43.206,-356.927C-60.996,-360.918 -55.405,-309.485 -55.405,-309.485C-66.079,-312.145 -63.538,-344.069 -63.538,-344.069C-78.787,-306.824 -56.93,-292.636 -56.93,-292.636L-56.732,-274.907ZM-56.408,-245.991L-55.913,-201.696L-24.907,-259.452C-17.791,-275.484 -35.581,-285.542 -35.581,-285.542C-60.996,-272.684 -43.714,-231.005 -43.714,-231.005C-49.959,-234.681 -54.047,-239.986 -56.408,-245.991ZM-54.213,-174.386L-54.213,-102.644C-54.213,-102.644 -23.547,-104.639 -19.556,-113.951C-19.556,-113.951 -20.886,-124.592 -27.537,-121.931C-27.537,-121.931 -31.528,-125.257 -20.886,-124.592C-10.263,-123.928 -54.142,-156.53 -54.213,-174.386ZM-13.191,-201.702C-13.162,-202.293 -9.312,-246.095 -16.231,-257.165C-16.231,-257.165 -52.145,-206.998 -54.141,-192.309C-56.136,-177.619 -16.231,-131.243 -16.231,-131.243C-16.231,-131.243 -6.92,-193.988 -20.887,-204.848C-20.887,-204.848 -13.262,-201.942 -13.191,-201.702ZM-13.191,-201.702C-13.192,-201.697 -13.192,-201.695 -13.191,-201.696C-13.191,-201.698 -13.191,-201.7 -13.191,-201.702Z" style="fill:white;"/>
    </g>
    <g transform="matrix(2.10407,0,0,2.10407,1540.81,1146.36)">
        <path d="M2.542,-274.883L2.542,-274.901C2.542,-274.901 10.065,-274.901 13.382,-273.327C10.402,-275.649 3.253,-280.886 -0.617,-280.886C-0.617,-280.886 27.448,-282.438 4.575,-316.136C4.575,-316.136 21.349,-298.423 39.648,-294.865C47.069,-293.422 53.487,-285.204 56.732,-274.907L56.93,-292.636C56.93,-292.636 78.787,-306.824 63.538,-344.069C63.538,-344.069 66.079,-312.145 55.405,-309.485C55.405,-309.485 60.996,-360.918 43.206,-356.927C43.206,-356.927 53.372,-377.767 0,-391.955C0,-391.955 62.013,-392.842 80.312,-316.136C98.611,-239.429 166.215,-250.071 166.215,-250.071C166.215,-250.071 106.235,-238.543 79.803,-280.886L78.279,-208.836C78.279,-208.836 113.86,-251.175 179.177,-235.104C179.177,-235.104 100.898,-241.203 89.588,-197.086C89.588,-197.086 66.588,-148.978 114.876,-145.431C114.876,-145.431 81.328,-138.865 71.162,-177.619C71.162,-177.619 67.604,-147.648 80.82,-141.441L79.295,-105.788C79.295,-105.788 112.843,-149.422 158.59,-145.431C158.59,-145.431 82.853,-130.356 78.279,-65.178C73.704,-0 0,0.887 0,0.887C0,0.887 50.83,-8.165 44.731,-40.219C44.731,-40.219 68.112,-47.886 52.863,-70.942C52.863,-70.942 62.521,-72.716 63.538,-57.197C63.538,-57.197 68.621,-75.819 50.83,-84.687L0,-109.073C0,-109.073 -4.575,-114.837 11.183,-116.611L2.542,-120.158L2.542,-185.535C2.611,-211.091 9.803,-204.849 9.803,-204.849C9.803,-204.849 -0.617,-170.498 17.119,-173.199C34.854,-175.898 31.247,-185.78 31.247,-185.78C44.711,-173.808 31.247,-167.542 31.247,-167.542C-8.668,-157.464 31.75,-118.607 31.247,-127.918C30.744,-137.229 39.731,-136.774 39.731,-136.774C37.736,-130.334 39.731,-118.607 53.738,-127.253C67.744,-135.899 53.698,-167.542 53.698,-167.542C55.029,-182.115 22.439,-244.972 15.123,-242.948C7.808,-240.923 15.123,-222.844 15.123,-222.844C3.944,-228.584 2.572,-273.861 2.542,-274.883ZM27.094,-111.29C44.386,-99.319 63.673,-101.314 63.673,-101.314L65.004,-115.946C63.673,-101.314 27.094,-111.29 27.094,-111.29ZM56.408,-245.991C54.047,-239.986 49.959,-234.681 43.714,-231.005C43.714,-231.005 60.996,-272.684 35.581,-285.542C35.581,-285.542 17.791,-275.484 24.907,-259.452L55.913,-201.696L56.408,-245.991Z" style="fill:white;"/>
    </g>
    <g transform="matrix(2.10407,0,0,2.10407,677.065,782.885)">
        <path d="M0,-49.377C1.236,-50.066 2.318,-50.993 3.179,-52.116C6.043,-55.854 11.28,-64.779 5.156,-74.217C5.156,-74.217 3.494,-54.147 -10.66,-57.284C-14.491,-58.133 -17.863,-60.425 -20.237,-63.549C-23.557,-67.92 -26.029,-75.33 -18.344,-82.642C-18.344,-82.642 -30.048,-85.556 -27.212,-93.726C-27.212,-93.726 -28.023,-102.372 -18.344,-105.254C-18.344,-105.254 -29.252,-108.258 -35.947,-95.061C-36.995,-92.994 -38.264,-91.043 -39.875,-89.378C-41.508,-87.693 -43.422,-86.196 -44.48,-87.056C-44.488,-87.063 -44.496,-87.069 -44.504,-87.076C-44.504,-87.076 -38.335,-81.654 -39.756,-78.078C-39.756,-78.078 -43.454,-87.33 -59.314,-95.23C-75.173,-103.13 -74.654,-116.339 -74.654,-116.339C-74.654,-116.339 -79.894,-101.704 -69.777,-91.066C-69.777,-91.066 -64.068,-85.04 -69.126,-80.351C-69.126,-80.351 -71.515,-77.543 -79.975,-77.321C-79.975,-77.321 -68.522,-74.882 -66.749,-67.566C-64.975,-60.251 -65.209,-45.785 -65.209,-45.785C-65.209,-45.785 -65.862,-48.057 -69.631,-48.501C-69.631,-48.501 -65.209,-45.785 -64.975,-31.209C-64.886,-25.629 -64.937,-4.822 -64.963,3.804C-64.973,7.279 -65.993,10.699 -68.031,13.514C-70.985,17.595 -76.482,22.37 -86.182,22.885C-86.182,22.885 -95.957,22.552 -98.597,35.976C-98.597,35.976 -87.131,20.84 -75.82,28.647C-73.889,29.98 -71.828,31.135 -69.622,31.934C-66.353,33.117 -62.385,33.748 -60.634,30.866C-60.634,30.866 -66.374,19.781 -59.756,13.147C-58.818,12.207 -57.67,11.321 -56.439,10.628C-55.728,10.228 -54.97,9.931 -54.186,9.728C-52.557,9.307 -50.833,9.449 -49.227,9.95L-47.738,10.414C-47.738,10.414 -46.907,2.184 -54.555,1.159L-54.555,-48.501C-54.555,-48.501 -29.673,-35.927 -18.17,-10.995C-15.285,-4.742 -13.769,2.058 -13.556,8.941L-13.467,11.8C-13.467,11.8 -13.629,7.332 -20.561,5.208C-20.561,5.208 -13.57,14.156 -23.113,11.8C-23.113,11.8 -47.204,6.512 -60.634,21.903C-60.634,21.903 -54.742,23.361 -53.984,32.212L-46.664,31.769C-46.664,31.769 -48.419,14.682 -18.787,19.781C-18.787,19.781 -14.278,21.333 -13.023,29.092C-11.83,36.469 -20.187,50.451 -20.561,50.375C-20.561,50.375 -7.618,51.323 -2.71,56.613C2.198,61.903 -2.826,66.962 -2.826,66.962C-2.826,66.962 14.857,60.66 2.32,49.31C-10.217,37.96 -0.517,43.918 -0.517,43.918C-0.517,43.918 -3.76,25.545 -2.014,-20.346C-2.014,-20.346 -5.197,-23.427 -10.329,-21.811C-14.983,-20.346 -16.978,-20.789 -24.275,-27.798C-34.568,-37.687 -53.366,-54.162 -54.555,-57.59C-56.44,-63.022 -53.004,-68.897 -56.468,-74.799C-56.468,-74.799 -34.8,-75.217 -19.35,-52.505C-16.564,-48.409 -14.959,-43.617 -14.647,-38.673C-14.458,-35.666 -14.396,-32.687 -14.829,-32.076C-15.759,-30.765 -18.974,-30.322 -20.561,-34.756C-20.561,-34.756 -21.551,-22.673 -13.736,-23.92C-13.736,-23.92 -4.924,-26.498 -1.571,-21.676C-1.571,-21.676 0.979,-28.413 -2.834,-30.336C-4.07,-30.96 -4.882,-32.184 -5.214,-33.529C-5.945,-36.498 -6.29,-41.516 -2.766,-46.864C-2.072,-47.918 -1.102,-48.762 0,-49.377" style="fill:white;fill-rule:nonzero;"/>
    </g>
    <g transform="matrix(2.10407,0,0,2.10407,637.843,955.689)">
        <path d="M0,-64.786C0,-64.786 -21.704,-66.157 -23.646,-59.711C-23.646,-59.711 -31.876,-55.045 -25.89,-37.42C-25.89,-37.42 -26.697,-49.608 -20.711,-52.268C-20.711,-52.268 -27.694,-29.988 -14.06,-23.005C-14.06,-23.005 -14.605,4.491 18.529,9.252C18.529,9.252 -22.706,14.573 -35.343,-49.94C-35.343,-49.94 -37.338,-60.249 -41.993,-60.249C-41.993,-60.249 -15.962,-79.359 0,-64.786" style="fill:white;fill-rule:nonzero;"/>
    </g>
    <g transform="matrix(0,-2.10407,-2.10407,0,658.467,614.963)">
        <path d="M-8.727,-8.727C-13.547,-8.727 -17.454,-4.82 -17.454,-0C-17.454,4.82 -13.547,8.727 -8.727,8.727C-3.907,8.727 -0,4.82 -0,-0C-0,-4.82 -3.907,-8.727 -8.727,-8.727" style="fill:white;fill-rule:nonzero;"/>
    </g>
    <g transform="matrix(2.10407,0,0,2.10407,910.722,656.359)">
        <path d="M0,-46.672C0,-46.672 18.512,-15.359 22.391,19.953C22.391,19.953 16.925,-17.978 13.496,-21.898C13.496,-21.898 12.581,-33.814 11.196,-35.587L11.196,-29.712C11.196,-29.712 6.485,-48.168 3.824,-49.332C3.824,-49.332 6.983,-42.848 5.819,-42.016C4.656,-41.185 2.494,-47.171 2.494,-47.171C2.494,-47.171 0.333,-53.988 1.164,-53.988C1.995,-53.988 2.161,-52.658 2.993,-50.995C3.824,-49.332 -1.164,-66.625 -6.817,-64.629C-6.817,-64.629 -7.483,-63.483 -4.988,-63.133C-4.988,-63.133 2.161,-57.646 0.166,-49.332C-1.829,-41.019 0,-46.672 0,-46.672" style="fill:white;fill-rule:nonzero;"/>
    </g>
    <g transform="matrix(2.10407,0,0,2.10407,916.669,497.286)">
        <path d="M8.963,12.808C7.996,13.163 9.311,15.629 9.311,15.629C11.772,17.11 10.669,22.114 10.669,22.114C14.188,27.933 14.798,22.446 16.461,20.95C18.123,19.453 18.456,11.805 18.456,11.805C18.456,11.805 19.565,1.662 16.627,0C13.69,-1.663 13.634,4.323 13.634,4.323C12.304,4.156 12.637,7.981 12.637,7.981C10.309,6.983 8.979,10.813 8.979,10.813C8.979,10.813 9.477,8.812 7.648,8.812C5.819,8.812 7.15,16.294 7.15,16.294L5.487,10.14L3.492,4.821C3.492,4.821 1.663,3.159 -1.496,3.325C-4.656,3.491 -5.154,7.316 -5.154,7.316C-6.983,6.152 -10.974,7.316 -11.473,7.482C-11.971,7.648 -15.962,6.65 -16.627,6.65C-17.292,6.65 -20.451,2.66 -20.451,2.66L-22.945,0.166C-22.945,0.166 -23.943,-2.328 -22.28,-2.661C-20.618,-2.993 -19.62,-8.148 -19.62,-8.148C-20.119,-10.475 -18.622,-12.969 -18.622,-12.969C-16.128,-16.295 -19.454,-22.114 -19.454,-22.114C-19.454,-22.114 -20.618,-24.941 -17.625,-25.772C-14.632,-26.604 -13.607,-34.252 -13.607,-34.252C-10.516,-33.694 -10.641,-44.245 -10.762,-47.665C-9.953,-36.767 0.756,-34.585 3.658,-34.585C6.651,-34.585 17.625,-28.599 17.625,-28.599C15.685,-31.259 4.157,-36.58 4.157,-36.58C4.157,-36.58 -2.328,-38.243 -6.318,-49.715C-10.309,-61.188 7.15,-71.497 7.15,-71.497C-2.827,-71.995 -12.304,-53.539 -12.304,-53.539C-13.302,-54.537 -11.971,-55.535 -11.971,-55.535C-14.133,-55.368 -15.297,-48.219 -15.297,-48.219C-15.962,-48.884 -15.131,-51.544 -15.131,-51.544C-18.29,-50.048 -17.625,-41.901 -17.625,-41.901C-20.119,-40.737 -20.784,-30.095 -20.784,-30.095C-21.948,-30.927 -20.784,-37.578 -20.784,-37.578C-20.784,-37.578 -19.772,-47.041 -13.512,-56.921C-10.274,-62.03 -5.633,-67.25 0.998,-71.33C20.451,-83.302 39.24,-71.995 39.24,-71.995C67.506,-49.715 60.522,-30.594 60.522,-30.594C61.354,-38.741 52.874,-57.364 52.874,-57.364C53.539,-54.703 51.378,-54.205 51.378,-54.205C47.72,-69.501 30.261,-71.995 30.261,-71.995C30.261,-71.995 39.24,-66.675 44.394,-56.699C49.549,-46.722 37.411,-39.905 35.748,-37.744C34.085,-35.582 30.095,-34.252 26.104,-32.423C22.114,-30.594 19.565,-21.283 20.135,-23.112C20.706,-24.94 23.659,-28.1 23.659,-28.1C23.659,-28.1 26.271,-30.095 32.922,-31.924C39.572,-33.753 44.062,-38.908 44.062,-38.908L48.551,-44.395C50.414,-46.258 50.674,-48.187 50.393,-49.75C50.856,-48.742 51.34,-47.69 51.71,-46.889C52.708,-44.727 51.876,-40.903 51.211,-38.243C50.546,-35.582 52.874,-34.585 52.874,-34.585C52.874,-34.585 54.703,-30.428 55.701,-27.435C56.698,-24.442 59.691,-24.276 59.691,-22.447C59.691,-20.618 57.696,-17.126 57.696,-17.126C57.696,-17.126 58.86,-15.131 58.195,-13.302C57.53,-11.473 61.021,-4.822 61.021,-4.822C61.021,-4.822 63.349,-0.499 62.518,0.997C61.686,2.494 59.192,2.927 59.192,2.927L56.199,6.983C56.199,6.983 50.546,8.147 51.378,6.152C52.209,4.156 50.047,4.156 50.047,4.156L45.558,3.658C45.558,3.658 43.397,5.154 41.734,4.988C40.071,4.821 41.235,3.159 41.235,3.159C35.914,1.496 35.083,9.311 35.083,9.311L33.42,12.802C33.42,12.802 32.256,17.957 36.579,11.805C40.903,5.653 44.56,7.981 44.56,7.981C40.903,8.646 40.237,13.622 40.237,13.622C41.539,14.329 42.138,15.001 42.279,15.62C44.087,12.803 47.765,11.849 48.562,11.671C48.662,11.649 42.512,19.398 42.512,19.398C42.512,19.398 41.235,22.612 42.233,25.439C43.23,28.266 41.235,30.261 41.235,30.261C34.252,34.251 22.613,83.467 21.465,92.114C20.318,100.76 19.565,95.555 19.565,95.555L18.123,72.66L16.461,60.19L11.971,43.23L9.477,35.748L5.819,24.441L5.819,27.767C5.819,27.767 4.323,24.94 3.325,20.95C2.328,16.959 0,17.458 0,17.458C1.865,16.051 3.953,17.911 5.2,19.41C3.946,16.908 4.92,14.299 4.92,14.299C6.515,18.289 8.48,18.123 8.48,18.123C6.983,16.294 7.981,13.135 7.981,13.135C7.981,13.135 8.585,12.934 8.963,12.808ZM50.393,-49.75C49.607,-51.46 48.883,-53.041 48.883,-53.041C48.883,-53.041 50.048,-51.674 50.393,-49.75ZM8.963,12.808C8.968,12.806 8.973,12.804 8.979,12.802C9.427,12.653 9.271,12.705 8.963,12.808ZM26.305,-11.085C26.305,-11.085 27.545,-12.415 27.989,-11.972C27.989,-11.972 25.972,-10.752 27.147,-9.866C27.147,-9.866 27.434,-10.954 27.989,-10.964C28.543,-10.974 27.989,-8.757 27.989,-8.757L28.235,-6.762L29.54,-4.545C29.54,-4.545 30.871,-5.875 29.984,-7.76C29.097,-9.644 32.77,-6.429 31.1,-0.887C29.43,4.655 30.316,5.209 30.316,5.209C30.316,5.209 32.312,3.769 32.644,1.552C32.977,-0.665 32.644,-3.426 32.644,-3.426L34.196,-3.426C34.196,-3.426 37.411,-0.887 40.403,-1.441C40.403,-1.441 50.713,-0.333 52.375,-3.991C54.037,-7.649 56.587,-7.87 55.811,-11.196C55.035,-14.521 56.809,-18.068 56.809,-18.068C56.809,-18.068 60.356,-22.281 58.472,-23.5C58.472,-23.5 55.7,-21.726 53.483,-23.5C51.266,-25.273 44.283,-23.5 44.283,-23.5C44.283,-23.5 43.285,-18.733 40.182,-17.514C37.078,-16.295 31.772,-12.415 31.1,-13.634C30.427,-14.854 28.099,-14.189 28.099,-14.189C28.099,-14.189 26.617,-14.078 26.305,-11.085ZM24.664,0.11C24.664,0.11 21.671,-0.998 21.56,4.544C21.449,10.086 21.56,14.188 21.56,14.188C21.56,14.188 22.669,20.617 24.664,21.947C26.659,23.277 24.664,25.051 28.211,21.947C28.211,21.947 30.982,16.492 31.093,13.622C31.204,10.751 30.096,7.98 27.879,8.313C25.662,8.645 25.662,5.098 25.662,5.098C25.662,5.098 25.662,3.325 25.551,2.881C25.44,2.438 25.673,0.154 24.664,0.11ZM33.919,27.601C33.919,27.596 33.587,24.774 33.587,24.774C33.919,27.601 29.43,39.406 29.43,39.406C26.104,42.232 21.465,84.631 21.465,84.631L32.755,36.579C32.612,38.159 32.468,43.215 32.432,44.561C32.695,40.455 38.408,25.772 38.408,25.772L38.741,27.767C38.741,27.767 40.237,28.598 40.404,25.938C40.57,23.278 38.907,23.943 38.907,23.943C38.907,23.943 40.404,22.779 41.401,17.791C41.431,17.642 41.465,17.497 41.504,17.355C40.299,18.428 38.099,19.168 37.411,19.398C36.082,19.841 33.921,27.593 33.919,27.601ZM15.569,-13.147C15.393,-13.57 15.131,-14.245 15.131,-14.245L11.916,-14.245C11.916,-14.245 7.538,-13.136 6.152,-15.298C4.766,-17.458 2.051,-19.732 2.66,-21.117C2.66,-21.117 0.72,-19.398 2.217,-17.847C2.217,-17.847 -2.993,-21.006 -2.217,-23.39C-2.217,-23.39 -3.215,-20.84 -1.774,-19.732C-1.774,-19.732 -4.101,-19.676 -4.489,-25.274C-4.489,-25.274 -4.988,-27.824 -7.981,-27.879C-7.981,-27.879 -5.598,-26.493 -5.653,-24.719C-5.653,-24.719 -7.482,-26.216 -9.089,-25.939C-9.089,-25.939 -8.314,-25.606 -8.092,-24.775C-8.092,-24.775 -10.918,-23.444 -13.607,-24.055C-13.607,-24.055 -15.629,-21.671 -17.126,-22.946C-18.622,-24.221 -18.955,-22.669 -18.955,-22.669C-18.955,-22.669 -19.066,-21.893 -18.401,-21.117C-18.401,-21.117 -15.352,-16.018 -16.516,-12.581C-16.516,-12.581 -15.352,-3.659 -10.974,-3.105C-10.974,-3.105 -2.993,0.998 1.718,-1.33C1.718,-1.33 7.161,-3.559 7.519,-4.759C7.435,-4.278 7.018,-2.489 5.487,-2.107C5.487,-2.107 7.427,-2.273 7.759,-3.16C7.759,-3.16 8.48,-0.957 7.704,0.019C7.704,0.019 6.983,2.938 8.591,3.823C8.591,3.823 10.087,4.6 10.42,5.541C10.752,6.484 10.032,2.196 8.868,1.108C7.704,0.019 9.533,-2.828 9.533,-2.828L11.362,-5.21C11.362,-5.21 13.135,-6.541 11.584,-8.481C11.584,-8.481 12.914,-8.869 12.969,-7.816C12.969,-7.816 13.8,-10.088 12.581,-10.587C12.581,-10.587 13.634,-10.697 13.8,-10.088C13.967,-9.478 14.133,-10.088 14.133,-10.088L13.135,-12.193C13.135,-12.193 14.133,-12.193 14.798,-11.141C15.463,-10.088 14.521,-13.136 13.468,-13.58C12.506,-13.984 14.968,-13.742 15.569,-13.147Z" style="fill:white;"/>
    </g>
    <g transform="matrix(2.10407,0,0,2.10407,815.564,491.635)">
        <path d="M0,4.348L13.634,-8.415C13.634,-8.415 21.948,-13.942 17.957,-17.6C13.967,-21.258 13.634,-26.911 13.634,-26.911C11.306,-37.22 -1.829,-36.721 -1.829,-36.721C-24.276,-34.227 -26.77,-54.512 -26.77,-54.512C-34.751,-30.901 -3.019,-34.559 -3.019,-34.559C11.087,-34.892 11.876,-26.911 11.876,-26.911C11.876,-27.41 3.492,-25.193 3.492,-25.193C10.641,-26.8 11.876,-22.92 11.876,-22.92C9.952,-24.916 6.983,-23.585 6.983,-23.585C3.492,-24.583 -1.663,-17.6 -1.663,-17.6C-9.802,-11.915 -22.956,-13.157 -28.419,-13.994C-23.29,-13.887 -14.964,-16.935 -14.964,-16.935C-29.43,-12.944 -38.575,-18.764 -38.575,-18.764C-45.724,-20.426 -42.112,-10.949 -42.112,-10.949C-42.112,-10.949 -43.563,-4.963 -46.223,-10.284C-48.883,-15.604 -54.204,-15.106 -54.204,-15.106C-50.546,-14.773 -49.05,-8.954 -47.553,-6.854C-46.057,-4.754 -42.112,-6.854 -42.112,-6.854C-42.112,-6.854 -36.746,-8.289 -35.249,-9.452C-33.753,-10.616 -25.999,-10.118 -25.999,-10.118L-14.632,-10.616L-3.019,-12.944C-3.019,-12.944 0.665,-11.281 0.333,-9.951C0,-8.621 -4.656,-10.118 -4.656,-10.118C-3.492,-6.46 -18.789,-5.961 -18.789,-5.961C-36.081,-0.64 -45.558,-4.298 -45.558,-4.298C-45.392,-2.635 -41.069,-1.471 -41.069,-1.471C-44.56,-1.305 -47.72,-3.467 -47.72,-3.467C-47.72,-3.467 -49.216,-6.46 -49.549,-3.966C-49.881,-1.471 -54.204,-0.308 -54.204,-0.308C-54.204,-0.308 -58.361,0.025 -58.86,0.856C-59.359,1.688 -56.033,1.355 -56.033,1.355C-56.033,1.355 -50.879,1.023 -49.881,1.854C-48.884,2.685 -45.724,1.688 -45.724,1.688L-46.556,0.856C-46.062,0.582 -44.7,0.561 -43.013,0.662C-39.585,0.868 -34.814,1.576 -33.254,1.688C-30.926,1.854 -15.297,-3.134 -15.297,-3.134C-4.282,-3.134 -2.13,-7.04 -1.743,-8.132C-2.032,-6.469 1.917,-5.742 0.499,-4.797C-0.998,-3.799 -3.019,-4.132 -3.019,-4.132C-4.542,-2.137 -8.147,-2.469 -8.147,-2.469C-15.812,-3.246 -42.112,11.664 -42.112,11.664C-44.984,13.327 -46.888,12.825 -46.888,12.825C-48.551,14.652 -58.527,13.499 -58.527,13.499C-62.684,14.169 -67.506,12.825 -67.506,12.825C-67.007,14.984 -69.539,16.308 -69.539,16.308C-69.539,16.308 -71.33,16.652 -70.997,17.982C-70.665,19.312 -65.937,17.095 -65.937,17.095C-65.937,17.095 -59.525,16.486 -57.822,17.095C-56.749,17.48 -56.451,17.067 -56.377,16.709C-56.386,18.193 -55.615,18.647 -54.637,18.647C-53.574,18.647 -53.373,17.095 -53.373,17.095C-53.373,17.095 -52.708,18.814 -51.378,17.816C-50.047,16.818 -47.387,16.308 -47.387,16.308L-42.112,16.308L-40.404,13.499C-40.404,13.499 -34.917,11.664 -26.936,7.175C-18.955,2.685 -8.314,0.524 -5.653,0.524C-2.993,0.524 7.648,-6.854 7.648,-6.854C7.648,-5.751 -2.66,0.856 -3.019,1.023C-3.379,1.189 -8.647,4.348 -11.14,4.387C-13.634,4.427 -32.09,17.151 -33.753,17.095C-35.416,17.04 -39.572,22.084 -39.572,22.084C-39.572,22.084 -42.732,23.414 -46.057,24.3C-49.382,25.187 -51.378,27.626 -51.378,27.626C-64.014,31.284 -64.347,43.422 -64.347,43.422C-59.259,43.291 -53.047,37.021 -50.606,34.325C-53.871,37.373 -60.19,38.433 -60.19,38.433C-58.86,35.108 -49.549,28.457 -49.549,28.457L-38.741,23.968C-38.741,23.968 -36.205,25.597 -35.582,23.137C-34.959,20.676 -30.095,18.98 -30.095,18.98L-7.648,7.895C-7.648,7.895 -7.17,12.138 -14.299,12.825C-21.429,13.513 -25.606,22.084 -25.606,22.084C-46.391,24.016 -55.119,50.867 -57.266,58.86C-52.807,45.424 -27.102,30.12 -27.102,30.12L-24.941,32.281C-25.439,24.799 -12.637,16.308 -12.637,16.308L-11.14,16.308C-10.974,14.467 -6.318,11.331 -4.988,10.999C-3.658,10.666 0,4.348 0,4.348" style="fill:white;fill-rule:nonzero;"/>
    </g>
    <g transform="matrix(-2.05397,0.456423,0.456423,2.05397,808.174,536.237)">
        <path d="M5.612,6.7C7.283,3.384 5.396,-1.428 5.396,-1.428C10.061,5.257 5.612,23.051 5.612,23.051C7.127,6.363 -8.743,-13.956 -8.743,-13.956C-3.309,-11.984 5.612,6.7 5.612,6.7" style="fill:white;fill-rule:nonzero;"/>
    </g>
    <g transform="matrix(-2.06453,0.405962,0.405962,2.06453,776.875,584.249)">
        <path d="M5.057,9.866C6.924,8.372 6.724,4.259 6.724,4.259C10.114,13.453 5.057,28.166 5.057,28.166C8.019,13.576 -8.615,-16.303 -8.615,-16.303C2.864,0.708 3.19,11.359 5.057,9.866" style="fill:white;fill-rule:nonzero;"/>
    </g>
    <g transform="matrix(-2.10407,0,0,2.10407,711.544,621.129)">
        <path d="M-17.957,-22.169C-3.996,-21.946 0,-0.443 0,-0.443C-10.419,0 -17.957,-18.4 -17.957,-18.4C-14.188,-11.084 -3.547,-5.675 -3.547,-5.675C-8.202,-17.114 -17.957,-22.169 -17.957,-22.169" style="fill:white;fill-rule:nonzero;"/>
    </g>
    <g transform="matrix(-1.48085,1.49472,1.49472,1.48085,689.745,589.897)">
        <path d="M10.141,-10.879C10.141,-10.879 7.828,-5.551 14.029,-8.458C11.352,-6.593 8.226,-3.267 10.141,1.405C10.141,1.405 1.119,-3.033 -1.849,-0.667C-1.849,-0.667 4.79,-8.313 10.141,-10.879" style="fill:white;fill-rule:nonzero;"/>
    </g>
    <g transform="matrix(-0.354009,-2.07407,-2.07407,0.354009,640.116,554.798)">
        <path d="M-5.882,-19.041C-12.03,-11.582 -12.137,-1.668 -12.407,-0.61C-13.286,2.848 -5.882,-7.843 -5.882,-7.843C-7.25,3.25 -15.738,4.907 -15.738,4.907C-18.211,-7.603 -5.882,-19.041 -5.882,-19.041" style="fill:white;fill-rule:nonzero;"/>
    </g>
    <g transform="matrix(2.10407,0,0,2.10407,705.013,538.293)">
        <path d="M0,3.123C2.66,-0.737 10.43,-1.089 10.43,-1.089C12.657,-1.533 12.082,-3.86 12.082,-3.86C12.082,-3.86 -4.434,-0.313 -6.429,-2.087C-8.424,-3.86 -15.962,-2.198 -15.962,-2.198L-18.497,0.352C-18.497,0.352 -19.952,2.125 -15.851,3.123C-12.9,3.841 -7.383,2.153 -4.511,1.147C-6.943,2.51 -10.236,5.451 -10.236,5.451C-10.236,5.451 -2.66,6.983 0,3.123" style="fill:white;fill-rule:nonzero;"/>
    </g>
    <g transform="matrix(1.29902,-1.65519,-1.65519,-1.29902,664.751,545.52)">
        <path d="M-4.224,-3.808C0.34,-7.29 1.524,-4.67 1.524,-4.67C1.524,-4.67 2.193,-1.75 -4.224,2.655C-10.64,7.061 -13.527,11.277 -13.527,11.277C-13.527,11.277 -8.788,-0.326 -4.224,-3.808" style="fill:white;fill-rule:nonzero;"/>
    </g>
    <g transform="matrix(2.10407,0,0,2.10407,683.476,507.781)">
        <path d="M0,-2.993C0.184,-1.219 -1.514,-0.333 -1.514,-0.333C-1.514,-0.333 -4.285,0.222 -3.159,1.773C-2.033,3.325 0,1.995 0,1.995L10.014,2.438C10.014,2.438 19.215,2.438 19.436,-0.333C19.658,-3.104 26.087,-4.379 26.087,-4.379C21.653,-6.318 18.55,-2.55 18.55,-2.55C18.55,-2.55 17.441,0.665 11.788,-1.995C6.135,-4.656 3.253,-4.379 3.253,-4.379C3.253,-4.379 -0.184,-4.767 0,-2.993" style="fill:white;fill-rule:nonzero;"/>
    </g>
    <g transform="matrix(2.10407,0,0,2.10407,704.08,481.191)">
        <path d="M0,2.439C0,2.439 2.63,-0.11 1.537,-2.993C1.537,-2.993 0.554,1.109 -1.109,1.552C-2.771,1.996 -3.658,0.111 -3.658,0.111C-3.658,0.111 -5.542,0.222 -5.986,1.885C-6.429,3.547 -9.089,2.993 -9.089,2.993C-9.089,2.993 -10.531,4.102 -9.089,4.767C-7.648,5.432 -0.776,3.991 0,2.439" style="fill:white;fill-rule:nonzero;"/>
    </g>
    <g transform="matrix(2.10407,0,0,2.10407,850.053,586.145)">
        <path d="M0,-37.023C-26.174,-26.16 -8.078,0 -8.078,0C-18.054,-21.615 0,-37.023 0,-37.023" style="fill:white;fill-rule:nonzero;"/>
    </g>
    <g transform="matrix(2.10407,0,0,2.10407,831.657,483.253)">
        <path d="M0,9.662C0,9.662 15.297,12.532 13.302,-2.87C13.302,-2.87 5.653,9.662 0,9.662" style="fill:white;fill-rule:nonzero;"/>
    </g>
    <g transform="matrix(0,-2.10407,-2.10407,0,788.748,606.209)">
        <path d="M8.089,-14.74C8.089,-14.74 2.937,-9.75 -4.16,-11.673C-11.257,-13.595 0.324,-5.8 8.089,-2.954C8.089,-2.954 -8.089,-2.436 -14.74,-20.393C-14.74,-20.393 1.083,-10.433 8.089,-14.74" style="fill:white;fill-rule:nonzero;"/>
    </g>
    <g transform="matrix(-2.09879,0.148913,0.148913,2.09879,864.62,658.541)">
        <path d="M8.586,-15.767C3.265,-10.889 3.899,-5.434 3.899,-5.434C7.011,-8.437 8.586,-5.099 8.586,-5.099C5.714,-6.729 0.559,0.304 0.559,0.304C0.896,-11.388 8.586,-15.767 8.586,-15.767" style="fill:white;fill-rule:nonzero;"/>
    </g>
    <g transform="matrix(2.10407,0,0,2.10407,622.45,466.5)">
        <path d="M0,-37.079C3.325,-37.245 4.323,-39.573 4.323,-39.573C4.323,-39.573 4.988,-41.568 2.882,-43.397C0.776,-45.226 -3.492,-40.903 -3.492,-40.903C-3.492,-40.903 -2.66,-43.065 -6.485,-40.903C-10.309,-38.742 -3.824,-33.587 -3.824,-33.587L22.242,-0.832C22.242,-0.832 29.596,6.151 32.09,7.149C34.584,8.147 37.743,5.32 38.741,1.828C39.739,-1.663 35.94,-2.162 35.94,-2.162C39.292,0.831 35.94,3.99 35.94,3.99C35.94,3.99 35.138,7.094 31.758,5.092C28.377,3.091 30.926,3.53 30.926,3.53L30.926,1.496C30.926,1.496 28.931,0.498 29.762,-0.5C30.594,-1.497 34.833,1.496 34.833,1.496L32.811,-0.666C32.811,-0.666 30.926,-1.497 29.067,-3.16C27.207,-4.823 29.004,-5.321 29.004,-5.321C10.122,-12.305 8.39,-37.744 8.39,-37.744C8.39,-37.744 6.983,-40.571 6.207,-37.744C5.431,-34.918 -0.499,-34.918 -0.499,-34.918C-0.499,-34.918 -3.325,-36.913 0,-37.079" style="fill:white;fill-rule:nonzero;"/>
    </g>
    <g transform="matrix(2.10407,0,0,2.10407,609.855,276.837)">
        <path d="M0,44.915C2.956,44.646 6.128,42.426 8.378,43.075C7.415,42.254 6.369,41.004 6.651,39.594C6.651,39.594 5.819,34.44 3.492,34.274C3.492,34.274 -4.988,25.794 7.981,-1.641C7.981,-1.641 -7.678,17.003 -0.665,31.78C6.348,46.556 1.33,38.43 1.33,38.43C1.33,38.43 0.246,35.604 -1.706,37.267C-3.658,38.929 -5.487,39.428 -4.323,41.922C-3.159,44.416 -3.658,45.248 0,44.915" style="fill:white;fill-rule:nonzero;"/>
    </g>
    <g transform="matrix(2.10407,0,0,2.10407,552.001,268.836)">
        <path d="M0,0.175C0.022,0.115 0.04,0.06 0.062,0C0.062,0 0.036,0.071 0,0.175" style="fill:white;fill-rule:nonzero;"/>
    </g>
    <g transform="matrix(2.10407,0,0,2.10407,550.032,290.195)">
        <path d="M0,26.761C0,26.761 -2.161,30.419 -0.333,33.578C1.496,36.737 2.734,34.742 2.734,34.742C2.734,34.742 3.159,32.248 5.819,31.749C8.48,31.25 6.651,28.424 6.651,28.424C-7.457,15.267 0.191,-7.848 0.936,-9.976C-9.933,19.801 0,26.761 0,26.761" style="fill:white;fill-rule:nonzero;"/>
    </g>
    <g transform="matrix(2.10407,0,0,2.10407,558.778,500.976)">
        <path d="M0,-60.234C0,-60.234 -3.658,-60.115 -3.492,-56.624C-3.325,-53.132 0.831,-53.631 0.831,-53.631C0.831,-53.631 4.323,-48.809 1.663,-49.64C-0.998,-50.472 -0.831,-46.481 0.499,-45.982C1.829,-45.484 5.82,-42.823 5.82,-42.823C8.147,-35.009 44.131,-2.752 44.131,-2.752C41.707,-0.591 44.062,3.899 46.556,4.896C49.05,5.894 48.906,1.388 48.052,1.151C47.198,0.914 49.715,-1.256 48.884,-0.052C48.052,1.151 49.382,2.402 52.985,3.922C56.587,5.442 57.031,-0.734 57.031,-0.734L57.031,-4.47C57.031,-4.47 53.705,0.74 51.71,-1.145C49.715,-3.029 51.71,-5.911 51.71,-5.911C49.216,-3.583 41.734,-8.433 41.734,-8.433C42.981,-7.874 45.784,-7.96 47.938,-8.133C44.81,-8.705 41.069,-11.293 41.069,-11.293C43.064,-10.025 45.869,-11.293 45.869,-11.293C28.667,-15.068 8.314,-50.305 8.314,-50.305L6.983,-51.968L5.404,-54.13C5.404,-54.13 8.314,-54.13 8.314,-55.959C8.314,-57.788 5.653,-56.956 4.988,-61.542C4.323,-66.128 2.494,-64.815 2.494,-64.815C-0.998,-64.526 0,-60.234 0,-60.234" style="fill:white;fill-rule:nonzero;"/>
    </g>
    <g transform="matrix(1.58141,1.38789,1.38789,-1.58141,540.549,453.596)">
        <path d="M4.288,-1.077C5.979,-2.248 8.236,5.263 8.236,5.263C8.236,5.263 6.95,7.232 4.288,9.762C1.625,12.292 -3.828,8.17 -3.828,8.17C4.224,10.59 2.597,0.093 4.288,-1.077" style="fill:white;fill-rule:nonzero;"/>
    </g>
    <g transform="matrix(2.10407,0,0,2.10407,669.249,460.2)">
        <path d="M0,26.604C0,26.604 -1.974,29.259 -5.124,27.765C-8.275,26.271 -12.765,21.41 -12.765,21.41C-12.765,21.41 -42.361,4.989 -43.525,1.83C-44.688,-1.329 -45.125,-6.318 -49.396,-2.826C-49.396,-2.826 -49.344,1.996 -52.669,2.495C-55.995,2.994 -58.323,2.495 -57.824,4.157C-57.325,5.82 -49.396,5.82 -49.396,5.82C-49.396,5.82 -17.974,21.347 -16.035,25.139C-14.095,28.932 -14.76,30.927 -11.434,31.925C-8.109,32.922 -4.451,31.248 -4.451,31.248C-4.451,31.248 1.357,30.762 0,26.604" style="fill:white;fill-rule:nonzero;"/>
    </g>
    <g transform="matrix(2.10407,0,0,2.10407,541.295,500.342)">
        <path d="M0,-18.037C0,-18.037 -4.494,-21.073 -5.159,-15.752C-5.824,-10.432 0,-13.258 0,-13.258L6.48,-10.992L37.573,3.036L9.455,-12.554C9.455,-12.554 3.82,-11.263 2.989,-14.921C2.157,-18.579 0,-18.037 0,-18.037" style="fill:white;fill-rule:nonzero;"/>
    </g>
    <g transform="matrix(2.10407,0,0,2.10407,500.704,203.636)">
        <path d="M0,87.52C0,87.52 -0.082,87.354 -0.218,87.06C-0.143,87.214 -0.086,87.364 0,87.52M-6.485,92.009C-6.485,92.009 -0.831,98.66 2.162,100.323C2.162,100.323 -41.734,21.843 -37.078,7.71L-29.929,28.993C-29.929,28.993 -30.427,23.506 -29.43,23.34C-29.43,23.34 -28.266,35.311 -26.603,38.47C-26.603,38.47 -27.933,30.988 -26.77,30.988C-26.77,30.988 -25.883,40.798 -24.165,43.292C-24.165,43.292 -23.61,37.971 -21.615,40.299C-21.615,40.299 -23.444,44.456 -22.613,46.784C-22.613,46.784 -21.615,43.458 -20.451,44.29C-20.451,44.29 -21.948,48.446 -20.784,51.273C-20.784,51.273 -20.784,48.28 -19.62,48.446C-19.62,48.446 -20.119,52.726 -19.62,53.745C-19.62,53.745 -19.454,52.726 -17.791,53.745C-17.791,53.745 -18.123,59.587 -16.294,61.582C-16.294,61.582 -17.458,56.427 -15.629,56.094C-15.629,56.094 -15.962,64.575 -14.299,66.237C-14.299,66.237 -13.378,63.91 -12.509,64.408C-11.639,64.907 -6.485,93.424 9.81,106.683C9.81,106.683 15.846,110.922 16.627,116.556C16.627,116.556 17.625,113.569 16.627,111.685C16.627,111.685 19.786,112.67 20.119,116.556C20.119,116.556 25.107,113.791 16.627,107.971C16.627,107.971 3.492,94.67 3.492,85.857C3.492,85.857 2.479,86.376 2.225,88.087C1.42,83.923 0.69,78.748 1.604,77.041C0.389,78.318 -2.264,81.776 -0.594,86.22C-1.83,83.384 -2.037,74.584 -1.995,74.551C-1.995,74.551 -4.03,76.789 -4.226,79.18C-4.414,75.443 -5.113,67.277 -7.648,64.741C-7.648,64.741 -6.318,58.659 -8.646,56.462L-11.473,62.734C-11.473,62.734 -9.105,44.955 -14.778,42.128C-14.778,42.128 -15.629,50.774 -17.458,52.104C-17.458,52.104 -16.627,27.496 -22.114,23.34C-22.114,23.34 -25.022,27.924 -24.633,32.014C-25.378,27.632 -28.119,11.917 -29.264,11.202C-29.264,11.202 -30.352,12.387 -30.853,14.012C-30.507,11.047 -30.021,5.367 -31.102,3.553C-31.102,3.553 -32.256,11.202 -33.254,11.202C-33.254,11.202 -31.924,-4.261 -35.582,-10.247C-35.582,-10.247 -40.404,-27.373 -35.582,-29.036C-35.582,-29.036 -48.884,-25.876 -36.081,18.684C-23.278,63.245 -6.485,92.009 -6.485,92.009" style="fill:white;fill-rule:nonzero;"/>
    </g>
    <g transform="matrix(2.10407,0,0,2.10407,387.355,183.953)">
        <path d="M0,-5.382C2.328,-5.382 9.311,8.585 9.311,8.585C8.211,4.06 6.211,-0.51 4.121,-4.479C0.53,-11.304 -3.325,-16.356 -3.325,-16.356C-4.258,-8.893 2.328,3.957 6.348,10.974C2.728,3.844 0,-5.382 0,-5.382" style="fill:white;fill-rule:nonzero;"/>
    </g>
    <g transform="matrix(-2.10318,0.0612493,0.0612493,2.10318,386.246,224.121)">
        <path d="M-14.516,10.871C-11.934,8.135 -0.158,-10.174 -0.158,-10.174C-1.402,4.125 -9.911,15.59 -14.516,20.834C-10.974,15.773 -8.282,7.228 -7.484,4.525C-8.897,8.297 -14.516,10.871 -14.516,10.871" style="fill:white;fill-rule:nonzero;"/>
    </g>
    <g transform="matrix(2.10407,0,0,2.10407,439.831,251.344)">
        <path d="M0,31.071C0,31.071 -11.684,15.63 -10.996,13.967L-1.33,23.943C-1.33,23.943 -17.049,0 -21.992,0.832C-21.992,0.832 -17.304,8.88 -12.097,16.685C-7.522,23.543 -2.547,30.213 0,31.071" style="fill:white;fill-rule:nonzero;"/>
    </g>
    <g transform="matrix(-1.32285,-1.63621,-1.63621,1.32285,443.507,308.079)">
        <path d="M-26.138,10.122L-9.741,10.122C-9.741,10.122 -13.957,7.521 -16.653,7.308C-12.823,7.087 0.228,6.784 4.818,12.492C4.818,12.492 -18.782,12.199 -26.138,10.122" style="fill:white;fill-rule:nonzero;"/>
    </g>
    <g transform="matrix(2.10407,0,0,2.10407,471.317,352.799)">
        <path d="M0,13.967L-14.964,0C-14.964,0 -16.303,8.349 0,13.967" style="fill:white;fill-rule:nonzero;"/>
    </g>
    <g transform="matrix(-0.456463,2.05396,2.05396,0.456463,451.718,382.067)">
        <path d="M3.246,4.047C3.246,4.047 1.282,6.263 0.849,3.514C0.416,0.766 0.396,6.906 3.246,12.478C3.246,12.478 -4.545,0.016 -1.299,-5.394C-1.299,-5.394 -2.02,-0.616 3.246,4.047" style="fill:white;fill-rule:nonzero;"/>
    </g>
    <g transform="matrix(2.10407,0,0,2.10407,497.556,399.327)">
        <path d="M0,8.314C0,8.314 -10.475,0 -17.126,0.832L0,8.314Z" style="fill:white;fill-rule:nonzero;"/>
    </g>
    <g transform="matrix(2.10407,0,0,2.10407,510.15,408.301)">
        <path d="M0,11.365C0,11.365 -8.812,8.871 -9.976,7.042C-9.976,7.042 -1.33,11.283 0,9.412C0,9.412 -14.492,-0.665 -25.952,0.279C-25.952,0.279 -12.138,12.03 0,11.365" style="fill:white;fill-rule:nonzero;"/>
    </g>
    <g transform="matrix(1.99122,0.679818,0.679818,-1.99122,512.995,453.066)">
        <path d="M0.909,2.414C0.909,2.414 -4.382,2.475 -6.489,2.985C-6.489,2.985 0.9,3.986 0.909,7.561C0.909,7.561 -9.1,2.915 -16.117,4.94C-16.117,4.94 -9.193,0.611 0.909,2.414" style="fill:white;fill-rule:nonzero;"/>
    </g>
    <g transform="matrix(2.10282,-0.0724317,-0.0724317,-2.10282,398.081,145.94)">
        <path d="M-0.267,-0.039C1.23,0.243 3.9,-9.167 3.9,-9.167C3.9,-9.167 4.586,25.248 -0.267,29.243C-0.267,29.243 -7.337,-2.125 2.072,-13.927C2.072,-13.927 -3.032,-0.559 -0.267,-0.039" style="fill:white;fill-rule:nonzero;"/>
    </g>
    <g transform="matrix(2.10407,0,0,2.10407,635.511,487.115)">
        <path d="M0,16.971C0.277,15.641 -2.051,15.647 -2.051,15.647C-2.051,15.647 -43.286,4.833 -44.283,4.002C-45.281,3.171 -47.715,-1.485 -49.99,-0.82C-49.99,-0.82 -48.047,1.175 -49.99,3.836C-51.932,6.496 -53.262,5.589 -51.932,8.038C-50.602,10.487 -46.611,7.381 -46.611,7.381C-46.611,7.381 -35.305,8.114 -30.317,11.628C-25.329,15.142 -4.046,18.456 -4.046,18.456L-8.701,15.647C-8.701,15.647 -0.277,18.301 0,16.971" style="fill:white;fill-rule:nonzero;"/>
    </g>
    <g transform="matrix(2.10407,0,0,2.10407,518.196,457.751)">
        <path d="M0,17.958C0,17.958 5.653,19.454 4.157,15.276C2.66,11.098 7.981,10.975 7.981,10.975C4.822,10.808 3.288,5.297 3.288,5.297C0.756,6.103 6.318,10.31 3.288,9.25C0.257,8.191 -0.333,3.492 -0.333,3.492C-1.663,3.825 -0.333,9.25 -0.333,9.25C-3.159,4.866 -1.995,1.343 -1.995,1.343C-5.487,2.02 -3.159,7.689 -3.159,7.689C-5.986,6.127 -7.648,-1.496 -7.648,-1.496C-10.974,0.333 -2.993,12.111 -2.993,12.111C-7.316,11.418 -9.81,2.205 -9.81,2.205C-13.462,9.991 0,17.958 0,17.958" style="fill:white;fill-rule:nonzero;"/>
    </g>
    <g transform="matrix(2.10407,0,0,2.10407,638.193,523.508)">
        <path d="M0,7.972C0,7.972 2.8,11.147 6.388,10.15C9.976,9.152 10.974,8.21 10.808,6.935C10.641,5.66 14.773,6.251 10.808,4.164C10.808,4.164 -0.835,7.173 -8.48,3.166C-8.48,3.166 -11.14,4.005 -8.48,5.248C-8.48,5.248 -35.914,3.998 -39.406,-0.159C-39.406,-0.159 -42.035,-3.175 -43.131,1.16C-43.131,1.16 -41.203,5.169 -43.131,5.248C-45.059,5.328 -48.717,2.002 -50.214,3.166C-51.71,4.33 -51.045,7.157 -48.218,8.154C-45.392,9.152 -39.277,9.706 -36.598,6.935C-36.598,6.935 -32.332,5.605 -24.896,6.935C-17.459,8.265 0,7.972 0,7.972" style="fill:white;fill-rule:nonzero;"/>
    </g>
    <g transform="matrix(2.10407,0,0,2.10407,542.439,452.837)">
        <path d="M0,35.741C0,35.741 0.117,34.094 1.741,31.264C3.364,28.435 -2.045,28.638 -2.045,28.638L-6.534,28.638C-11.023,28.638 -26.154,9.652 -27.65,8.654C-29.147,7.657 -27.817,2.835 -29.261,0.84C-30.705,-1.156 -36.795,2.502 -33.802,2.502C-30.809,2.502 -31.641,7.989 -31.641,7.989C-31.641,7.989 -34.301,6.992 -36.961,7.989C-39.622,8.987 -38.957,11.315 -32.472,12.312C-25.988,13.31 -11.855,29.771 -11.855,29.771C-11.855,29.771 -7.532,32.597 -4.871,34.747C-2.211,36.897 0,35.741 0,35.741" style="fill:white;fill-rule:nonzero;"/>
    </g>
    <g transform="matrix(2.10407,0,0,2.10407,471.317,389.882)">
        <path d="M0,36.247C0,36.247 0.665,34.252 -1.496,33.599C-3.658,32.946 -1.829,29.403 -1.829,29.403C-3.99,31.204 -3.824,28.038 -3.824,28.038C-3.824,28.038 -0.998,22.114 -6.069,21.615C-11.14,21.116 -18.622,7.482 -17.791,3.325C-16.96,-0.831 -19.786,-0.499 -19.786,-0.499C-19.786,-0.499 -21.948,0.998 -24.442,3.991C-26.936,6.983 -29.929,3.991 -29.929,3.991C-31.591,7.482 -22.28,10.808 -22.28,10.808C-22.28,10.808 -14.632,24.941 -9.477,30.165C-4.323,35.388 -6.069,37.078 -6.069,37.078C-1.995,33.919 0,36.247 0,36.247" style="fill:white;fill-rule:nonzero;"/>
    </g>
    <g transform="matrix(2.10407,0,0,2.10407,407.927,273.986)">
        <path d="M0,43.067C0,43.067 -0.134,44.773 -1.298,46.34C-2.461,47.906 1.03,48.674 1.03,48.674L4.167,48.674C4.167,48.674 6.351,47.434 4.167,47.101C1.983,46.768 2.45,44.441 2.45,44.441C2.539,38.455 -1.298,39.453 -1.298,39.453C-5.953,35.795 -13.934,-5.607 -13.934,-5.607C-13.602,18.004 -4.398,39.951 -4.398,39.951C-4.398,39.951 -5.953,42.279 -4.398,44.441C-2.843,46.602 0,43.067 0,43.067" style="fill:white;fill-rule:nonzero;"/>
    </g>
    <g transform="matrix(2.10407,0,0,2.10407,426.537,390.933)">
        <path d="M0,-6.651C-0.998,-9.81 -2.494,-7.933 -2.494,-7.933C-2.494,-7.933 -2.328,-6.984 -4.678,-4.157C-7.028,-1.33 -9.311,-1.663 -10.143,-1.663C-10.143,-1.663 -11.805,-2.494 -11.14,0.332C-10.475,3.159 -3.707,-0.333 -3.707,-0.333C-3.707,-0.333 0.998,-3.492 0,-6.651" style="fill:white;fill-rule:nonzero;"/>
    </g>
    <g transform="matrix(2.10407,0,0,2.10407,1102.86,491.257)">
        <path d="M0,4.348L-13.634,-8.415C-13.634,-8.415 -21.948,-13.942 -17.957,-17.6C-13.967,-21.258 -13.634,-26.911 -13.634,-26.911C-11.306,-37.22 1.829,-36.721 1.829,-36.721C24.276,-34.227 26.77,-54.512 26.77,-54.512C34.751,-30.901 3.019,-34.559 3.019,-34.559C-11.087,-34.892 -11.876,-26.911 -11.876,-26.911C-11.876,-27.41 -3.492,-25.193 -3.492,-25.193C-10.641,-26.8 -11.876,-22.92 -11.876,-22.92C-9.952,-24.916 -6.983,-23.585 -6.983,-23.585C-3.492,-24.583 1.663,-17.6 1.663,-17.6C9.802,-11.915 22.956,-13.157 28.419,-13.994C23.29,-13.887 14.964,-16.935 14.964,-16.935C29.43,-12.944 38.575,-18.764 38.575,-18.764C45.724,-20.426 42.112,-10.949 42.112,-10.949C42.112,-10.949 43.563,-4.963 46.223,-10.284C48.883,-15.604 54.204,-15.106 54.204,-15.106C50.546,-14.773 49.05,-8.954 47.553,-6.854C46.057,-4.754 42.112,-6.854 42.112,-6.854C42.112,-6.854 36.746,-8.289 35.249,-9.452C33.753,-10.616 25.999,-10.118 25.999,-10.118L14.632,-10.616L3.019,-12.944C3.019,-12.944 -0.665,-11.281 -0.333,-9.951C0,-8.621 4.656,-10.118 4.656,-10.118C3.492,-6.46 18.789,-5.961 18.789,-5.961C36.081,-0.64 45.558,-4.298 45.558,-4.298C45.392,-2.635 41.069,-1.471 41.069,-1.471C44.56,-1.305 47.72,-3.467 47.72,-3.467C47.72,-3.467 49.216,-6.46 49.549,-3.966C49.881,-1.471 54.204,-0.308 54.204,-0.308C54.204,-0.308 58.361,0.025 58.86,0.856C59.359,1.688 56.033,1.355 56.033,1.355C56.033,1.355 50.879,1.023 49.881,1.854C48.884,2.685 45.724,1.688 45.724,1.688L46.556,0.856C46.062,0.582 44.7,0.561 43.013,0.662C39.585,0.868 34.814,1.576 33.254,1.688C30.926,1.854 15.297,-3.134 15.297,-3.134C4.282,-3.134 2.13,-7.04 1.743,-8.132C2.032,-6.469 -1.917,-5.742 -0.499,-4.797C0.998,-3.799 3.019,-4.132 3.019,-4.132C4.542,-2.137 8.147,-2.469 8.147,-2.469C15.812,-3.246 42.112,11.664 42.112,11.664C44.984,13.327 46.888,12.825 46.888,12.825C48.551,14.652 58.527,13.499 58.527,13.499C62.684,14.169 67.506,12.825 67.506,12.825C67.007,14.984 69.539,16.308 69.539,16.308C69.539,16.308 71.33,16.652 70.997,17.982C70.665,19.312 65.937,17.095 65.937,17.095C65.937,17.095 59.525,16.486 57.822,17.095C56.749,17.48 56.451,17.067 56.377,16.709C56.386,18.193 55.615,18.647 54.637,18.647C53.574,18.647 53.373,17.095 53.373,17.095C53.373,17.095 52.708,18.814 51.378,17.816C50.047,16.818 47.387,16.308 47.387,16.308L42.112,16.308L40.404,13.499C40.404,13.499 34.917,11.664 26.936,7.175C18.955,2.685 8.314,0.524 5.653,0.524C2.993,0.524 -7.648,-6.854 -7.648,-6.854C-7.648,-5.751 2.66,0.856 3.019,1.023C3.379,1.189 8.647,4.348 11.14,4.387C13.634,4.427 32.09,17.151 33.753,17.095C35.416,17.04 39.572,22.084 39.572,22.084C39.572,22.084 42.732,23.414 46.057,24.3C49.382,25.187 51.378,27.626 51.378,27.626C64.014,31.284 64.347,43.422 64.347,43.422C59.259,43.291 53.047,37.021 50.606,34.325C53.871,37.373 60.19,38.433 60.19,38.433C58.86,35.108 49.549,28.457 49.549,28.457L38.741,23.968C38.741,23.968 36.205,25.597 35.582,23.137C34.959,20.676 30.095,18.98 30.095,18.98L7.648,7.895C7.648,7.895 7.17,12.138 14.299,12.825C21.429,13.513 25.606,22.084 25.606,22.084C46.391,24.016 55.119,50.867 57.266,58.86C52.807,45.424 27.102,30.12 27.102,30.12L24.941,32.281C25.439,24.799 12.637,16.308 12.637,16.308L11.14,16.308C10.974,14.467 6.318,11.331 4.988,10.999C3.658,10.666 0,4.348 0,4.348" style="fill:white;fill-rule:nonzero;"/>
    </g>
    <g transform="matrix(-2.05397,-0.456423,-0.456423,2.05397,1110.25,535.859)">
        <path d="M-5.612,6.7C-7.283,3.384 -5.396,-1.428 -5.396,-1.428C-10.061,5.257 -5.612,23.051 -5.612,23.051C-7.127,6.363 8.743,-13.956 8.743,-13.956C3.309,-11.984 -5.612,6.7 -5.612,6.7" style="fill:white;fill-rule:nonzero;"/>
    </g>
    <g transform="matrix(-2.06453,-0.405962,-0.405962,2.06453,1141.55,583.871)">
        <path d="M-5.057,9.866C-6.924,8.372 -6.724,4.259 -6.724,4.259C-10.114,13.453 -5.057,28.166 -5.057,28.166C-8.019,13.576 8.615,-16.303 8.615,-16.303C-2.864,0.708 -3.19,11.359 -5.057,9.866" style="fill:white;fill-rule:nonzero;"/>
    </g>
    <g transform="matrix(-2.10407,0,0,2.10407,1206.88,620.751)">
        <path d="M17.957,-22.169C3.996,-21.946 0,-0.443 0,-0.443C10.419,0 17.957,-18.4 17.957,-18.4C14.188,-11.084 3.547,-5.675 3.547,-5.675C8.202,-17.114 17.957,-22.169 17.957,-22.169" style="fill:white;fill-rule:nonzero;"/>
    </g>
    <g transform="matrix(-1.48085,-1.49472,-1.49472,1.48085,1228.68,589.519)">
        <path d="M-10.141,-10.879C-10.141,-10.879 -7.828,-5.551 -14.029,-8.458C-11.352,-6.593 -8.226,-3.267 -10.141,1.405C-10.141,1.405 -1.119,-3.033 1.849,-0.667C1.849,-0.667 -4.79,-8.313 -10.141,-10.879" style="fill:white;fill-rule:nonzero;"/>
    </g>
    <g transform="matrix(-0.354009,2.07407,2.07407,0.354009,1278.31,554.42)">
        <path d="M5.882,-19.041C12.03,-11.582 12.137,-1.668 12.407,-0.61C13.286,2.848 5.882,-7.843 5.882,-7.843C7.25,3.25 15.738,4.907 15.738,4.907C18.211,-7.603 5.882,-19.041 5.882,-19.041" style="fill:white;fill-rule:nonzero;"/>
    </g>
    <g transform="matrix(2.10407,0,0,2.10407,1213.41,537.915)">
        <path d="M0,3.123C-2.66,-0.737 -10.43,-1.089 -10.43,-1.089C-12.657,-1.533 -12.082,-3.86 -12.082,-3.86C-12.082,-3.86 4.434,-0.313 6.429,-2.087C8.424,-3.86 15.962,-2.198 15.962,-2.198L18.497,0.352C18.497,0.352 19.952,2.125 15.851,3.123C12.9,3.841 7.383,2.153 4.511,1.147C6.943,2.51 10.236,5.451 10.236,5.451C10.236,5.451 2.66,6.983 0,3.123" style="fill:white;fill-rule:nonzero;"/>
    </g>
    <g transform="matrix(1.29902,1.65519,1.65519,-1.29902,1253.67,545.142)">
        <path d="M4.224,-3.808C-0.34,-7.29 -1.524,-4.67 -1.524,-4.67C-1.524,-4.67 -2.193,-1.75 4.224,2.655C10.64,7.061 13.527,11.277 13.527,11.277C13.527,11.277 8.788,-0.326 4.224,-3.808" style="fill:white;fill-rule:nonzero;"/>
    </g>
    <g transform="matrix(2.10407,0,0,2.10407,1234.95,507.403)">
        <path d="M0,-2.993C-0.184,-1.219 1.514,-0.333 1.514,-0.333C1.514,-0.333 4.285,0.222 3.159,1.773C2.033,3.325 0,1.995 0,1.995L-10.014,2.438C-10.014,2.438 -19.215,2.438 -19.436,-0.333C-19.658,-3.104 -26.087,-4.379 -26.087,-4.379C-21.653,-6.318 -18.55,-2.55 -18.55,-2.55C-18.55,-2.55 -17.441,0.665 -11.788,-1.995C-6.135,-4.656 -3.253,-4.379 -3.253,-4.379C-3.253,-4.379 0.184,-4.767 0,-2.993" style="fill:white;fill-rule:nonzero;"/>
    </g>
    <g transform="matrix(2.10407,0,0,2.10407,1214.34,480.813)">
        <path d="M0,2.439C0,2.439 -2.63,-0.11 -1.537,-2.993C-1.537,-2.993 -0.554,1.109 1.109,1.552C2.771,1.996 3.658,0.111 3.658,0.111C3.658,0.111 5.542,0.222 5.986,1.885C6.429,3.547 9.089,2.993 9.089,2.993C9.089,2.993 10.531,4.102 9.089,4.767C7.648,5.432 0.776,3.991 0,2.439" style="fill:white;fill-rule:nonzero;"/>
    </g>
    <g transform="matrix(2.10407,0,0,2.10407,1068.37,585.768)">
        <path d="M0,-37.023C26.174,-26.16 8.078,0 8.078,0C18.054,-21.615 0,-37.023 0,-37.023" style="fill:white;fill-rule:nonzero;"/>
    </g>
    <g transform="matrix(2.10407,0,0,2.10407,1086.77,482.875)">
        <path d="M0,9.662C0,9.662 -15.297,12.532 -13.302,-2.87C-13.302,-2.87 -5.653,9.662 0,9.662" style="fill:white;fill-rule:nonzero;"/>
    </g>
    <g transform="matrix(0,2.10407,2.10407,0,1129.67,605.832)">
        <path d="M-8.089,-14.74C-8.089,-14.74 -2.937,-9.75 4.16,-11.673C11.257,-13.595 -0.324,-5.8 -8.089,-2.954C-8.089,-2.954 8.089,-2.436 14.74,-20.393C14.74,-20.393 -1.083,-10.433 -8.089,-14.74" style="fill:white;fill-rule:nonzero;"/>
    </g>
    <g transform="matrix(-2.09879,-0.148913,-0.148913,2.09879,1053.8,658.163)">
        <path d="M-8.586,-15.767C-3.265,-10.889 -3.899,-5.434 -3.899,-5.434C-7.011,-8.437 -8.586,-5.099 -8.586,-5.099C-5.714,-6.729 -0.559,0.304 -0.559,0.304C-0.896,-11.388 -8.586,-15.767 -8.586,-15.767" style="fill:white;fill-rule:nonzero;"/>
    </g>
    <g transform="matrix(2.10407,0,0,2.10407,1295.97,466.122)">
        <path d="M0,-37.079C-3.325,-37.245 -4.323,-39.573 -4.323,-39.573C-4.323,-39.573 -4.988,-41.568 -2.882,-43.397C-0.776,-45.226 3.492,-40.903 3.492,-40.903C3.492,-40.903 2.66,-43.065 6.485,-40.903C10.309,-38.742 3.824,-33.587 3.824,-33.587L-22.242,-0.832C-22.242,-0.832 -29.596,6.151 -32.09,7.149C-34.584,8.147 -37.743,5.32 -38.741,1.828C-39.739,-1.663 -35.94,-2.162 -35.94,-2.162C-39.292,0.831 -35.94,3.99 -35.94,3.99C-35.94,3.99 -35.138,7.094 -31.758,5.092C-28.377,3.091 -30.926,3.53 -30.926,3.53L-30.926,1.496C-30.926,1.496 -28.931,0.498 -29.762,-0.5C-30.594,-1.497 -34.833,1.496 -34.833,1.496L-32.811,-0.666C-32.811,-0.666 -30.926,-1.497 -29.067,-3.16C-27.207,-4.823 -29.004,-5.321 -29.004,-5.321C-10.122,-12.305 -8.39,-37.744 -8.39,-37.744C-8.39,-37.744 -6.983,-40.571 -6.207,-37.744C-5.431,-34.918 0.499,-34.918 0.499,-34.918C0.499,-34.918 3.325,-36.913 0,-37.079" style="fill:white;fill-rule:nonzero;"/>
    </g>
    <g transform="matrix(2.10407,0,0,2.10407,1308.57,276.459)">
        <path d="M0,44.915C-2.956,44.646 -6.128,42.426 -8.378,43.075C-7.415,42.254 -6.369,41.004 -6.651,39.594C-6.651,39.594 -5.819,34.44 -3.492,34.274C-3.492,34.274 4.988,25.794 -7.981,-1.641C-7.981,-1.641 7.678,17.003 0.665,31.78C-6.348,46.556 -1.33,38.43 -1.33,38.43C-1.33,38.43 -0.246,35.604 1.706,37.267C3.658,38.929 5.487,39.428 4.323,41.922C3.159,44.416 3.658,45.248 0,44.915" style="fill:white;fill-rule:nonzero;"/>
    </g>
    <g transform="matrix(2.10407,0,0,2.10407,1366.42,268.458)">
        <path d="M0,0.175C-0.022,0.115 -0.04,0.06 -0.062,0C-0.062,0 -0.036,0.071 0,0.175" style="fill:white;fill-rule:nonzero;"/>
    </g>
    <g transform="matrix(2.10407,0,0,2.10407,1368.39,289.817)">
        <path d="M0,26.761C0,26.761 2.161,30.419 0.333,33.578C-1.496,36.737 -2.734,34.742 -2.734,34.742C-2.734,34.742 -3.159,32.248 -5.819,31.749C-8.48,31.25 -6.651,28.424 -6.651,28.424C7.457,15.267 -0.191,-7.848 -0.936,-9.976C9.933,19.801 0,26.761 0,26.761" style="fill:white;fill-rule:nonzero;"/>
    </g>
    <g transform="matrix(2.10407,0,0,2.10407,1359.64,500.598)">
        <path d="M0,-60.234C0,-60.234 3.658,-60.115 3.492,-56.624C3.325,-53.132 -0.831,-53.631 -0.831,-53.631C-0.831,-53.631 -4.323,-48.809 -1.663,-49.64C0.998,-50.472 0.831,-46.481 -0.499,-45.982C-1.829,-45.484 -5.82,-42.823 -5.82,-42.823C-8.147,-35.009 -44.131,-2.752 -44.131,-2.752C-41.707,-0.591 -44.062,3.899 -46.556,4.896C-49.05,5.894 -48.906,1.388 -48.052,1.151C-47.198,0.914 -49.715,-1.256 -48.884,-0.052C-48.052,1.151 -49.382,2.402 -52.985,3.922C-56.587,5.442 -57.031,-0.734 -57.031,-0.734L-57.031,-4.47C-57.031,-4.47 -53.705,0.74 -51.71,-1.145C-49.715,-3.029 -51.71,-5.911 -51.71,-5.911C-49.216,-3.583 -41.734,-8.433 -41.734,-8.433C-42.981,-7.874 -45.784,-7.96 -47.938,-8.133C-44.81,-8.705 -41.069,-11.293 -41.069,-11.293C-43.064,-10.025 -45.869,-11.293 -45.869,-11.293C-28.667,-15.068 -8.314,-50.305 -8.314,-50.305L-6.983,-51.968L-5.404,-54.13C-5.404,-54.13 -8.314,-54.13 -8.314,-55.959C-8.314,-57.788 -5.653,-56.956 -4.988,-61.542C-4.323,-66.128 -2.494,-64.815 -2.494,-64.815C0.998,-64.526 0,-60.234 0,-60.234" style="fill:white;fill-rule:nonzero;"/>
    </g>
    <g transform="matrix(1.58141,-1.38789,-1.38789,-1.58141,1377.87,453.218)">
        <path d="M-4.288,-1.077C-5.979,-2.248 -8.236,5.263 -8.236,5.263C-8.236,5.263 -6.95,7.232 -4.288,9.762C-1.625,12.292 3.828,8.17 3.828,8.17C-4.224,10.59 -2.597,0.093 -4.288,-1.077" style="fill:white;fill-rule:nonzero;"/>
    </g>
    <g transform="matrix(2.10407,0,0,2.10407,1249.17,459.822)">
        <path d="M0,26.604C0,26.604 1.974,29.259 5.124,27.765C8.275,26.271 12.765,21.41 12.765,21.41C12.765,21.41 42.361,4.989 43.525,1.83C44.688,-1.329 45.125,-6.318 49.396,-2.826C49.396,-2.826 49.344,1.996 52.669,2.495C55.995,2.994 58.323,2.495 57.824,4.157C57.325,5.82 49.396,5.82 49.396,5.82C49.396,5.82 17.974,21.347 16.035,25.139C14.095,28.932 14.76,30.927 11.434,31.925C8.109,32.922 4.451,31.248 4.451,31.248C4.451,31.248 -1.357,30.762 0,26.604" style="fill:white;fill-rule:nonzero;"/>
    </g>
    <g transform="matrix(2.10407,0,0,2.10407,1377.13,499.964)">
        <path d="M0,-18.037C0,-18.037 4.494,-21.073 5.159,-15.752C5.824,-10.432 0,-13.258 0,-13.258L-6.48,-10.992L-37.573,3.036L-9.455,-12.554C-9.455,-12.554 -3.82,-11.263 -2.989,-14.921C-2.157,-18.579 0,-18.037 0,-18.037" style="fill:white;fill-rule:nonzero;"/>
    </g>
    <g transform="matrix(2.10407,0,0,2.10407,1418.18,204.227)">
        <path d="M0,86.599C-0.136,86.893 -0.218,87.059 -0.218,87.059C-0.132,86.903 -0.075,86.753 0,86.599M35.863,18.223C48.666,-26.337 35.364,-29.496 35.364,-29.496C40.186,-27.833 35.364,-10.708 35.364,-10.708C31.706,-4.722 33.036,10.741 33.036,10.741C32.039,10.741 30.885,3.093 30.885,3.093C29.803,4.907 30.29,10.587 30.635,13.552C30.134,11.927 29.046,10.741 29.046,10.741C27.901,11.456 25.16,27.172 24.415,31.553C24.804,27.463 21.896,22.879 21.896,22.879C16.409,27.036 17.241,51.644 17.241,51.644C15.412,50.314 14.56,41.668 14.56,41.668C8.887,44.494 11.255,62.273 11.255,62.273L8.428,56.002C6.1,58.198 7.431,64.28 7.431,64.28C4.895,66.816 4.197,74.982 4.008,78.719C3.759,75.684 1.777,74.09 1.777,74.09C4.249,76.041 1.633,82.876 0.376,85.759C2.047,81.315 -0.607,77.857 -1.822,76.581C-0.908,78.287 -1.638,83.462 -2.443,87.626C-2.697,85.915 -3.71,85.397 -3.71,85.397C-3.71,94.209 -16.845,107.511 -16.845,107.511C-25.325,113.33 -20.337,116.095 -20.337,116.095C-20.004,112.209 -16.845,111.224 -16.845,111.224C-17.843,113.108 -16.845,116.095 -16.845,116.095C-16.064,110.461 -10.028,106.223 -10.028,106.223C6.267,92.963 11.421,64.447 12.291,63.948C13.161,63.449 14.081,65.777 14.081,65.777C15.744,64.114 15.412,55.634 15.412,55.634C17.241,55.966 16.077,61.121 16.077,61.121C17.906,59.126 17.573,53.285 17.573,53.285C19.236,52.265 19.402,53.285 19.402,53.285C19.901,52.265 19.402,47.986 19.402,47.986C20.566,47.82 20.566,50.812 20.566,50.812C21.73,47.986 20.233,43.829 20.233,43.829C21.397,42.998 22.395,46.323 22.395,46.323C23.226,43.995 21.397,39.839 21.397,39.839C23.393,37.511 23.947,42.831 23.947,42.831C25.665,40.337 26.552,30.527 26.552,30.527C27.716,30.527 26.385,38.01 26.385,38.01C28.048,34.85 29.212,22.879 29.212,22.879C30.21,23.045 29.711,28.532 29.711,28.532L36.86,7.25C41.516,21.383 -2.379,99.862 -2.379,99.862C0.614,98.2 6.267,91.549 6.267,91.549C6.267,91.549 23.06,62.784 35.863,18.223" style="fill:white;fill-rule:nonzero;"/>
    </g>
    <g transform="matrix(2.10407,0,0,2.10407,1531.07,183.576)">
        <path d="M0,-5.382C-2.328,-5.382 -9.311,8.585 -9.311,8.585C-8.211,4.06 -6.211,-0.51 -4.121,-4.479C-0.53,-11.304 3.325,-16.356 3.325,-16.356C4.258,-8.893 -2.328,3.957 -6.348,10.974C-2.728,3.844 0,-5.382 0,-5.382" style="fill:white;fill-rule:nonzero;"/>
    </g>
    <g transform="matrix(-2.10318,-0.0612493,-0.0612493,2.10318,1532.18,223.744)">
        <path d="M14.516,10.871C11.934,8.135 0.158,-10.174 0.158,-10.174C1.402,4.125 9.911,15.59 14.516,20.834C10.974,15.773 8.282,7.228 7.484,4.525C8.897,8.297 14.516,10.871 14.516,10.871" style="fill:white;fill-rule:nonzero;"/>
    </g>
    <g transform="matrix(2.10407,0,0,2.10407,1478.59,250.966)">
        <path d="M0,31.071C0,31.071 11.684,15.63 10.996,13.967L1.33,23.943C1.33,23.943 17.049,0 21.992,0.832C21.992,0.832 17.304,8.88 12.097,16.685C7.522,23.543 2.547,30.213 0,31.071" style="fill:white;fill-rule:nonzero;"/>
    </g>
    <g transform="matrix(1.32285,-1.63621,-1.63621,-1.32285,1483.71,372.459)">
        <path d="M-4.833,12.48L11.564,12.48C11.564,12.48 7.348,15.081 4.652,15.294C8.482,15.515 21.533,15.818 26.123,10.11C26.123,10.11 2.523,10.403 -4.833,12.48" style="fill:white;fill-rule:nonzero;"/>
    </g>
    <g transform="matrix(2.10407,0,0,2.10407,1447.1,352.421)">
        <path d="M0,13.967L14.964,0C14.964,0 16.303,8.349 0,13.967" style="fill:white;fill-rule:nonzero;"/>
    </g>
    <g transform="matrix(-0.456463,-2.05396,-2.05396,0.456463,1466.7,381.69)">
        <path d="M-3.246,4.047C-3.246,4.047 -1.282,6.263 -0.849,3.514C-0.416,0.766 -0.396,6.906 -3.246,12.478C-3.246,12.478 4.545,0.016 1.299,-5.394C1.299,-5.394 2.02,-0.616 -3.246,4.047" style="fill:white;fill-rule:nonzero;"/>
    </g>
    <g transform="matrix(2.10407,0,0,2.10407,1420.87,398.95)">
        <path d="M0,8.314C0,8.314 10.475,0 17.126,0.832L0,8.314Z" style="fill:white;fill-rule:nonzero;"/>
    </g>
    <g transform="matrix(2.10407,0,0,2.10407,1408.27,407.923)">
        <path d="M0,11.365C0,11.365 8.812,8.871 9.976,7.042C9.976,7.042 1.33,11.283 0,9.412C0,9.412 14.492,-0.665 25.952,0.279C25.952,0.279 12.138,12.03 0,11.365" style="fill:white;fill-rule:nonzero;"/>
    </g>
    <g transform="matrix(1.99122,-0.679818,-0.679818,-1.99122,1405.43,452.688)">
        <path d="M-0.909,2.414C-0.909,2.414 4.382,2.475 6.489,2.985C6.489,2.985 -0.9,3.986 -0.909,7.561C-0.909,7.561 9.1,2.915 16.117,4.94C16.117,4.94 9.193,0.611 -0.909,2.414" style="fill:white;fill-rule:nonzero;"/>
    </g>
    <g transform="matrix(2.10282,0.0724317,0.0724317,-2.10282,1520.34,145.563)">
        <path d="M0.267,-0.039C-1.23,0.243 -3.9,-9.167 -3.9,-9.167C-3.9,-9.167 -4.586,25.248 0.267,29.243C0.267,29.243 7.337,-2.125 -2.072,-13.927C-2.072,-13.927 3.032,-0.559 0.267,-0.039" style="fill:white;fill-rule:nonzero;"/>
    </g>
    <g transform="matrix(2.10407,0,0,2.10407,1282.91,486.738)">
        <path d="M0,16.971C-0.277,15.641 2.051,15.647 2.051,15.647C2.051,15.647 43.286,4.833 44.283,4.002C45.281,3.171 47.715,-1.485 49.99,-0.82C49.99,-0.82 48.047,1.175 49.99,3.836C51.932,6.496 53.262,5.589 51.932,8.038C50.602,10.487 46.611,7.381 46.611,7.381C46.611,7.381 35.305,8.114 30.317,11.628C25.329,15.142 4.046,18.456 4.046,18.456L8.701,15.647C8.701,15.647 0.277,18.301 0,16.971" style="fill:white;fill-rule:nonzero;"/>
    </g>
    <g transform="matrix(2.10407,0,0,2.10407,1400.23,457.373)">
        <path d="M0,17.958C0,17.958 -5.653,19.454 -4.157,15.276C-2.66,11.098 -7.981,10.975 -7.981,10.975C-4.822,10.808 -3.288,5.297 -3.288,5.297C-0.756,6.103 -6.318,10.31 -3.288,9.25C-0.257,8.191 0.333,3.492 0.333,3.492C1.663,3.825 0.333,9.25 0.333,9.25C3.159,4.866 1.995,1.343 1.995,1.343C5.487,2.02 3.159,7.689 3.159,7.689C5.986,6.127 7.648,-1.496 7.648,-1.496C10.974,0.333 2.993,12.111 2.993,12.111C7.316,11.418 9.81,2.205 9.81,2.205C13.462,9.991 0,17.958 0,17.958" style="fill:white;fill-rule:nonzero;"/>
    </g>
    <g transform="matrix(2.10407,0,0,2.10407,1280.23,523.13)">
        <path d="M0,7.972C0,7.972 -2.8,11.147 -6.388,10.15C-9.976,9.152 -10.974,8.21 -10.808,6.935C-10.641,5.66 -14.773,6.251 -10.808,4.164C-10.808,4.164 0.835,7.173 8.48,3.166C8.48,3.166 11.14,4.005 8.48,5.248C8.48,5.248 35.914,3.998 39.406,-0.159C39.406,-0.159 42.035,-3.175 43.131,1.16C43.131,1.16 41.203,5.169 43.131,5.248C45.059,5.328 48.717,2.002 50.214,3.166C51.71,4.33 51.045,7.157 48.218,8.154C45.392,9.152 39.277,9.706 36.598,6.935C36.598,6.935 32.332,5.605 24.896,6.935C17.459,8.265 0,7.972 0,7.972" style="fill:white;fill-rule:nonzero;"/>
    </g>
    <g transform="matrix(2.10407,0,0,2.10407,1375.98,452.46)">
        <path d="M0,35.741C0,35.741 -0.117,34.094 -1.741,31.264C-3.364,28.435 2.045,28.638 2.045,28.638L6.534,28.638C11.023,28.638 26.154,9.652 27.65,8.654C29.147,7.657 27.817,2.835 29.261,0.84C30.705,-1.156 36.795,2.502 33.802,2.502C30.809,2.502 31.641,7.989 31.641,7.989C31.641,7.989 34.301,6.992 36.961,7.989C39.622,8.987 38.957,11.315 32.472,12.312C25.988,13.31 11.855,29.771 11.855,29.771C11.855,29.771 7.532,32.597 4.871,34.747C2.211,36.897 0,35.741 0,35.741" style="fill:white;fill-rule:nonzero;"/>
    </g>
    <g transform="matrix(2.10407,0,0,2.10407,1447.1,389.505)">
        <path d="M0,36.247C0,36.247 -0.665,34.252 1.496,33.599C3.658,32.946 1.829,29.403 1.829,29.403C3.99,31.204 3.824,28.038 3.824,28.038C3.824,28.038 0.998,22.114 6.069,21.615C11.14,21.116 18.622,7.482 17.791,3.325C16.96,-0.831 19.786,-0.499 19.786,-0.499C19.786,-0.499 21.948,0.998 24.442,3.991C26.936,6.983 29.929,3.991 29.929,3.991C31.591,7.482 22.28,10.808 22.28,10.808C22.28,10.808 14.632,24.941 9.477,30.165C4.323,35.388 6.069,37.078 6.069,37.078C1.995,33.919 0,36.247 0,36.247" style="fill:white;fill-rule:nonzero;"/>
    </g>
    <g transform="matrix(2.10407,0,0,2.10407,1510.49,273.609)">
        <path d="M0,43.067C0,43.067 0.134,44.773 1.298,46.34C2.461,47.906 -1.03,48.674 -1.03,48.674L-4.167,48.674C-4.167,48.674 -6.351,47.434 -4.167,47.101C-1.983,46.768 -2.45,44.441 -2.45,44.441C-2.539,38.455 1.298,39.453 1.298,39.453C5.953,35.795 13.934,-5.607 13.934,-5.607C13.602,18.004 4.398,39.951 4.398,39.951C4.398,39.951 5.953,42.279 4.398,44.441C2.843,46.602 0,43.067 0,43.067" style="fill:white;fill-rule:nonzero;"/>
    </g>
    <g transform="matrix(2.10407,0,0,2.10407,1491.88,390.555)">
        <path d="M0,-6.651C0.998,-9.81 2.494,-7.933 2.494,-7.933C2.494,-7.933 2.328,-6.984 4.678,-4.157C7.028,-1.33 9.311,-1.663 10.143,-1.663C10.143,-1.663 11.805,-2.494 11.14,0.332C10.475,3.159 3.707,-0.333 3.707,-0.333C3.707,-0.333 -0.998,-3.492 0,-6.651" style="fill:white;fill-rule:nonzero;"/>
    </g>
    <g transform="matrix(2.10407,0,0,2.10407,982.106,1099.72)">
        <path d="M0,-52.763C0,-52.763 -3.54,-47.664 0,-41.678C3.539,-35.693 14.181,-28.377 14.846,3.104C14.846,3.104 9.733,-0.443 6.636,-10.641L8.86,-13.523L6.636,-13.523L7.752,-16.627L4.87,-16.405L6.636,-20.617L3.983,-19.509L5.535,-22.613L2.431,-23.056C2.431,-23.056 -0.015,-31.037 -0.008,-36.358C-0.008,-36.358 -3.887,-44.339 -2.502,-50.103C-1.116,-55.867 0,-52.763 0,-52.763" style="fill:white;fill-rule:nonzero;"/>
    </g>
    <g transform="matrix(2.10407,0,0,2.10407,985.822,1113.24)">
        <path d="M0,-50.103C0,-50.103 16.627,-36.58 16.849,-18.844C17.07,-1.109 15.075,0 15.075,0C15.075,0 18.401,-26.382 0,-50.103" style="fill:white;fill-rule:nonzero;"/>
    </g>
    <g transform="matrix(0.226197,2.09187,2.09187,-0.226197,932.369,1012.85)">
        <path d="M-7.802,-6.606C-7.802,-6.606 -7.073,-14.814 6.917,-16.894C6.917,-16.894 8.074,-10.329 -7.802,1.645C-7.802,1.645 2.569,-9.367 1.396,-12.284C1.396,-12.284 -3.626,-11.294 -7.802,-6.606" style="fill:white;fill-rule:nonzero;"/>
    </g>
    <g transform="matrix(2.10407,0,0,2.10407,942.441,1071.96)">
        <path d="M0,-58.306C0,-58.306 -4.212,-60.19 -3.991,-55.757C-3.769,-51.323 -8.424,-55.313 -5.542,-52.653C-5.542,-52.653 -9.089,-50.658 -5.542,-48.441C-1.995,-46.224 -1.58,-49.327 -1.58,-49.327C-1.58,-49.327 -1.109,-51.544 0.887,-49.327C2.882,-47.11 9.533,-41.125 5.764,-9.201C5.764,-9.201 2.217,-8.055 2.439,-4.859C2.66,-1.663 7.349,-3.215 7.887,-2.328C8.424,-1.441 9.533,-2.993 10.42,-0.555C11.306,1.884 13.967,-0.555 13.967,-0.555C13.967,-0.555 18.622,-6.54 12.193,-7.871C12.193,-7.871 9.783,-9.594 10.863,-12.057C11.75,-14.078 8.338,-48.167 2.439,-53.096C2.439,-53.096 3.769,-56.643 0,-58.306" style="fill:white;fill-rule:nonzero;"/>
    </g>
    <g transform="matrix(0.707351,-1.9816,-1.9816,-0.707351,957.904,971.604)">
        <path d="M4.446,-1.673C4.446,-1.673 5.95,-3.176 1.082,-8.37C1.082,-8.37 -5.158,-1.805 4.446,1.623C4.446,1.623 3.841,1.407 2.461,-3.482C1.082,-8.37 4.446,-1.673 4.446,-1.673" style="fill:white;fill-rule:nonzero;"/>
    </g>
    <g transform="matrix(2.10407,0,0,2.10407,945.24,1073.08)">
        <path d="M0,-28.241C0,-28.241 -17.736,-12.883 -15.075,0C-15.075,0 -10.001,-1.971 -8.659,-4.409C-8.659,-4.409 -11.971,-1.971 -12.415,-4.188C-12.415,-4.188 -9.14,-4.853 -7.674,-7.07C-7.674,-7.07 -8.196,-6.391 -10.42,-7.735C-10.42,-7.735 -6.429,-9.73 -5.321,-11.725C-5.321,-11.725 -8.228,-10.173 -8.659,-11.282C-9.089,-12.39 -5.099,-20.825 0,-28.241" style="fill:white;fill-rule:nonzero;"/>
    </g>
    <g transform="matrix(-2.07943,0.32103,0.32103,2.07943,1049.02,1010.17)">
        <path d="M17.391,-28.936C17.391,-28.936 -0.333,-15.207 4.795,0.937C4.795,0.937 16.992,-1.058 17.391,-13.009C17.391,-13.009 14.39,-6.489 12.117,-6.586C12.117,-6.586 8.356,-14.754 17.391,-28.936" style="fill:white;fill-rule:nonzero;"/>
    </g>
    <g transform="matrix(2.10407,0,0,2.10407,1032,1083.8)">
        <path d="M0,-17.683C0,-17.683 3.739,-15.542 1.761,-5.097C1.64,-4.456 1.497,-3.783 1.33,-3.077C-1.552,9.116 11.306,-17.044 6.651,-26.799C6.651,-26.799 6.651,-16.157 4.877,-15.714C3.104,-15.271 3.325,-18.987 0,-17.683" style="fill:white;fill-rule:nonzero;"/>
    </g>
    <g transform="matrix(-0.257398,2.08826,2.08826,0.257398,924.513,1089.06)">
        <path d="M0.131,-20.661C0.131,-20.661 15.479,-8.047 18.27,0.116C18.27,0.116 7.169,-11.305 0.131,-10.385C0.131,-10.385 6.192,-15.346 9.2,-10.273C9.2,-10.273 2.352,-18.153 0.131,-20.661" style="fill:white;fill-rule:nonzero;"/>
    </g>
    <g transform="matrix(2.10407,0,0,2.10407,976.213,983.182)">
        <path d="M0,-12.231C2.6,-14.188 4.567,-12.231 4.567,-12.231C4.567,-12.231 2.35,-11.344 5.897,-10.236C9.444,-9.127 10.109,-7.354 7.67,-5.137C5.232,-2.92 2.793,-5.137 2.793,-5.137C2.793,-5.137 0.909,-2.476 0.299,-0.26C-0.311,1.957 -2.749,0.683 -2.749,0.683C-2.749,0.683 0.598,0.161 0.299,-6.035C0,-12.231 -4.123,-9.127 0,-12.231" style="fill:white;fill-rule:nonzero;"/>
    </g>
    <g transform="matrix(0.065682,-2.10304,-2.10304,-0.065682,963.205,1119.04)">
        <path d="M0.653,-14.738C-0.102,-13.578 -8.287,-1.253 -15.733,0.326C-15.733,0.326 0.652,1.187 0.653,-13.008C0.653,-14.738 0.796,-16.099 0.717,-14.93C0.712,-14.857 0.693,-14.799 0.653,-14.738" style="fill:white;fill-rule:nonzero;"/>
    </g>
    <g transform="matrix(-1.08524,1.8026,1.8026,1.08524,966.587,1113.59)">
        <path d="M-10.577,-19.763C-10.577,-19.763 1.695,-25.055 12.962,-8.955C12.962,-8.955 -5.773,-15.229 -10.577,-6.391C-10.577,-6.391 -6.798,-15.676 -2.275,-15.024C-2.275,-15.024 -2.491,-18.397 -10.577,-19.763" style="fill:white;fill-rule:nonzero;"/>
    </g>
    <g transform="matrix(2.10407,0,0,2.10407,920.051,1027.42)">
        <path d="M0,-49.256C0,-49.256 2.278,-43.009 -1.854,-37.134C-5.986,-31.259 -13.302,-27.674 -13.302,-27.674C-13.302,-27.674 -24.849,-24.088 -23.056,0C-23.056,0 -22.169,-22.391 -7.538,-25.052C-7.538,-25.052 12.193,-37.324 0,-49.256" style="fill:white;fill-rule:nonzero;"/>
    </g>
    <g transform="matrix(2.10407,0,0,2.10407,992.352,949.816)">
        <path d="M0,-12.375C0,-12.375 -2.66,-2.268 2.882,-0.651C2.882,-0.651 -6.429,0 0,-12.375" style="fill:white;fill-rule:nonzero;"/>
    </g>
    <g transform="matrix(0,-2.10407,-2.10407,0,957.501,895.945)">
        <path d="M-2.059,-2.059C-3.196,-2.059 -4.118,-1.137 -4.118,0C-4.118,1.137 -3.196,2.059 -2.059,2.059C-0.922,2.059 0,1.137 0,0C0,-1.137 -0.922,-2.059 -2.059,-2.059" style="fill:white;fill-rule:nonzero;"/>
    </g>
    <g transform="matrix(0,-2.10407,-2.10407,0,957.381,911.734)">
        <path d="M-2.862,-2.862C-4.443,-2.862 -5.724,-1.581 -5.724,0C-5.724,1.581 -4.443,2.862 -2.862,2.862C-1.281,2.862 0,1.581 0,0C0,-1.581 -1.281,-2.862 -2.862,-2.862" style="fill:white;fill-rule:nonzero;"/>
    </g>
    <g transform="matrix(0,-2.10407,-2.10407,0,957.463,931.105)">
        <path d="M-4.316,-4.316C-6.701,-4.316 -8.633,-2.383 -8.633,0C-8.633,2.385 -6.701,4.316 -4.316,4.316C-1.932,4.316 0,2.385 0,0C0,-2.383 -1.932,-4.316 -4.316,-4.316" style="fill:white;fill-rule:nonzero;"/>
    </g>
    <g transform="matrix(-1.61733,1.34586,1.34586,1.61733,909.724,1062.81)">
        <path d="M-4.572,-26.588C-4.572,-26.588 11.683,-17.538 11.043,-2.841C11.043,-2.841 2.549,-11.981 -4.572,-8.218C-4.572,-8.218 -1.063,-13.391 2.549,-11.981C6.161,-10.572 5.278,-17.78 -4.572,-26.588" style="fill:white;fill-rule:nonzero;"/>
    </g>
    <g transform="matrix(0,2.10407,2.10407,0,1035.84,1020.52)">
        <path d="M-0.936,-10.691C-0.936,-10.691 4.859,-5.925 10.857,-5.426C10.857,-5.426 2.389,-0.936 -0.936,-3.763C-0.936,-3.763 3.779,-2.932 4.961,-4.761C4.961,-4.761 -1.102,-7.643 -0.936,-10.691" style="fill:white;fill-rule:nonzero;"/>
    </g>
    <g transform="matrix(2.10407,0,0,2.10407,928.42,1004.91)">
        <path d="M0,-12.304C0,-12.304 0.9,-1.496 -5.751,0C-5.751,0 1.565,-6.103 -5.751,-8.538C-5.751,-8.538 -1.121,-8.036 0,-12.304" style="fill:white;fill-rule:nonzero;"/>
    </g>
    <g transform="matrix(2.10407,0,0,2.10407,995.571,1007.82)">
        <path d="M0,-9.924C0,-9.924 -4.301,-5.099 2.073,0C2.073,0 -0.089,-7.316 3.07,-8.203C3.312,-8.271 -0.039,-7.582 0,-9.924" style="fill:white;fill-rule:nonzero;"/>
    </g>
    <g transform="matrix(2.10407,0,0,2.10407,978.528,1128.75)">
        <path d="M0,-13.591C0,-13.591 -7.751,-12.636 -9.264,0C-9.264,0 -12.333,-11.63 0,-13.591" style="fill:white;fill-rule:nonzero;"/>
    </g>
</svg>
